<svg role="img" aria-labelledby="errorShibaTitle errorShibaDesc" id="Layer_1" data-name="Layer 1" xmlns="http://www.w3.org/2000/svg" viewBox="0 0 274.19 380.64">
<title id="errorShibaTitle">Confused Shiba Inu</title>
<desc id="errorShibaDesc">confused-looking Shiba Inu with a question mark over its head</desc>
<defs></defs><path class="error-graphic-main" d="M929.2,676.61l27.71,5.31c-.92,2-11.12,14-12,14.83-2.78,2.55-5.8,5.81-9.51,5.15-2.64-.48-4.64-2.82-5.49-5.38s1.08-5,1-7.23c-.06-1.74-1.8-5.26-1.71-12.68" transform="translate(-823.4 -349.68)"/><path class="error-graphic-main" d="M928.7,678.42l27.71,5.31L955.29,681c-1.1,2.26-3,4.15-4.59,6.09-2,2.48-4.07,4.94-6.19,7.34a32.24,32.24,0,0,1-2.49,2.47c-1.56,1.44-3.59,3.4-5.89,3.23C934,700,932.29,698,931.71,696c-.68-2.25,1.2-4.54,1.06-6.84a27,27,0,0,0-.92-4.34,37.29,37.29,0,0,1-.79-8.23c0-2.42-3.73-2.42-3.75,0a41.68,41.68,0,0,0,.76,8.42c.17.88.38,1.75.6,2.62.08.3.15.6.22.9s.15,1.08.12.51a8,8,0,0,1-.59,2.85,9,9,0,0,0-.43,4.73,10,10,0,0,0,4.68,6.23c5.22,2.88,10.14-1.34,13.67-4.9,2.08-2.1,3.91-4.5,5.79-6.77,1.33-1.61,2.65-3.22,3.93-4.87a20,20,0,0,0,2.46-3.47,1.89,1.89,0,0,0-1.12-2.75l-27.7-5.31c-2.36-.45-3.37,3.16-1,3.62Z" transform="translate(-823.4 -349.68)"/><path class="error-graphic-main" d="M1071.85,650.35c-4.91,11.24-13.06,23.43-22.8,28.88-4.44,2.48-6.24,4.24-11.55,5.94l31.76,22.9a22.68,22.68,0,0,0,7,3.88c2.6.71,5.66.35,7.52-1.6,2.6-2.72,1.88-7.1,1-10.76C1080.75,683.25,1075.87,666.69,1071.85,650.35Z" transform="translate(-823.4 -349.68)"/><path class="error-graphic-main" d="M1070.23,649.41c-3.44,7.82-7.9,15.42-13.86,21.61a41.84,41.84,0,0,1-9.33,7.2c-3.3,1.93-6.37,3.94-10,5.14a1.9,1.9,0,0,0-.45,3.42l18.62,13.43,9.27,6.68c3.16,2.29,6.28,4.93,9.94,6.39,3.23,1.29,7.18,1.27,10-1s3.35-5.88,2.94-9.23a92,92,0,0,0-2.73-11.79c-1.08-4.19-2.2-8.38-3.33-12.56-2.59-9.61-5.23-19.22-7.61-28.88-.58-2.35-4.2-1.35-3.62,1,3.92,15.93,8.54,31.67,12.51,47.59.7,2.83,1.87,6.3.78,9.18s-4.73,3.2-7.37,2.27c-3.4-1.2-6.37-3.88-9.26-6s-5.77-4.17-8.66-6.25l-19.6-14.13L1038,687a38.64,38.64,0,0,0,8.49-4,83.38,83.38,0,0,0,8.13-5.24,59.25,59.25,0,0,0,13.32-15.78,88.4,88.4,0,0,0,5.53-10.62,2,2,0,0,0-.67-2.57A1.89,1.89,0,0,0,1070.23,649.41Z" transform="translate(-823.4 -349.68)"/><path class="error-graphic-main" d="M1039.23,460c5.28-6.39,18.44-20.21,22-24.54a21.68,21.68,0,0,1,5.29-5.18c2.48-1.71,4.37-3,7.26-2.21a13.75,13.75,0,0,1,9.58,8.93c3.35,9.82,3,20.46,1.21,30.71a154.39,154.39,0,0,1-5.28,18.27c15.76,23.63,16.12,39.14,13.32,51.45-2.36,10.4-12.2,30.39-17.29,38.61-.5.81,3.71-6-.5.81a182.35,182.35,0,0,1,1.71,46.31c-1.6,16.11-2.49,31.62-11.91,44.79s-26.44,22.84-42.58,21.51l6.67-15.15c-6.78,15.4-14.2,29.67-21,45.07-1.52,3.44-3.09,6-6.82,6.6-2.66.41-4.18,0-5.81-2.15s-1.36-4.08-2.13-6.66c-4.31-14.47-10.71-28.37-15-42.85l4.13,13.83c-17.28-4.72-38.84-7.47-56.31-10.83l7.94-8.85c-11.38,12.39-23.63,21.26-35,33.65-2.55,2.77-3.84,7.54-7.55,6.88-2.65-.47-3.66-1.6-4.5-4.16s-.55-4.85-.44-7.54c.57-15.09-1.13-30.08-.55-45.18.78-35,18.87-65.65,43.45-90.53-5.08-9.49-5.21-7.08-10.54-14.84-7.4-10.77-9.88-23.19-10.77-33.82-1.07-12.59,9.43-36.19,22.27-53.81-.68-3.8-.45-13.8-.34-17.67C930,431,934.88,420,940.15,411c2.4-4.06,5.75-7.31,7.31-7.54,3-.43,6,1.46,8.1,3.63s5.49,10.16,4.08,7.48c6.35,12,10.45,15.87,17.2,28.61l-2.3-4.35c20.58-2.68,52.53,3.37,70.83,13.67" transform="translate(-823.4 -349.68)"/><path class="error-graphic-main" d="M1040.55,461.28c7.2-8.62,15.21-16.53,22.47-25.08,2.43-2.87,6-7,10.28-6.37,5.07.74,7.87,5.86,9.07,10.24,2.45,8.94,2.12,18.79.27,27.83-1.18,5.71-3.74,11.16-4.87,16.83-.56,2.79,1.55,4.6,3,7a100.27,100.27,0,0,1,6.2,11.79c4.68,10.73,6.54,22.38,3.74,33.86-3.19,13.1-10,26.28-17,37.74-1.27,2.06,2,3.94,3.24,1.89l1.42-2.29-3.24-1.89c-.71,1.15-1.85,2.4-2.11,3.74-.55,2.83.94,7,1.26,9.85a188.81,188.81,0,0,1,1.19,19.31,194,194,0,0,1-3.57,39.59c-4.76,23.42-24.61,43.79-49.82,42.23l1.62,2.82,6.67-15.14c1-2.19-2.26-4.1-3.24-1.9-3.87,8.74-8,17.34-12.13,26-2.19,4.59-4.37,9.19-6.48,13.82-1.45,3.17-2.78,8.68-6.09,10.43-6.28,3.33-7-4.77-8.16-8.7-1.45-4.83-3.21-9.57-5-14.3-3.3-8.87-6.76-17.68-9.52-26.75-.7-2.3-4.31-1.32-3.62,1l4.13,13.83,2.31-2.3c-18.49-5-37.54-7.27-56.32-10.83l.83,3.13,7.95-8.85c1.6-1.79-1-4.43-2.65-2.65-6.54,7-13.7,13.34-20.79,19.78-5.83,5.28-12.06,10.59-16.58,17.08-1.82,2.62-4.89,4.65-6.58.34-.86-2.2-.45-4.76-.37-7,.19-5.24.12-10.48,0-15.72-.29-9.82-.84-19.63-.52-29.46,1.13-34.68,19.12-64.94,42.9-89.2a1.92,1.92,0,0,0,.3-2.27c-2.76-5.08-6.31-9-9.65-13.58a61.66,61.66,0,0,1-10.32-25.61c-1.33-7.49-1.4-14.14.65-21.49a112.44,112.44,0,0,1,9.84-23.32q3.13-5.78,6.75-11.27c1.86-2.81,4-4.58,3.73-7.95-.44-6.67-.71-13.82.27-20.45a65.28,65.28,0,0,1,10.71-26.44c1.61-2.33,3.78-5.6,7.2-4.94,2.35.45,4.29,2.62,5.5,4.54,1,1.54,2.43,3.71,2.75,5.54l3.13-1.82,0-.16c-1.17-2.12-4.38-.24-3.23,1.89,5.27,9.82,11.93,18.78,17.2,28.61,1.14,2.13,4.37.24,3.24-1.89l-2.3-4.35-1.62,2.82c23-2.78,49.59,2.25,69.88,13.41,2.12,1.16,4-2.07,1.9-3.24-20.82-11.45-48.19-16.77-71.78-13.92a1.9,1.9,0,0,0-1.62,2.82l2.3,4.35,3.24-1.89c-5.27-9.83-11.93-18.79-17.21-28.61L958,415.54a6.44,6.44,0,0,0,.62.92c1.28,1.64,3.42-.22,3.13-1.82-.59-3.4-3.44-7.68-6-9.91-4.61-4-9.41-4.07-13.48.31-10,10.73-14.36,27.15-14.54,41.41,0,2.93-.06,5.87.09,8.8,0,.83.54,2.72.3,3.54-.41,1.43-2.51,3.34-3.37,4.65A147,147,0,0,0,913,484.78c-5.45,12.24-8.25,23.56-6,36.85a65.55,65.55,0,0,0,9.45,25.28c3.56,5.4,7.91,9.85,11,15.58l.29-2.27c-20.61,21-37.6,46.8-42.51,76.3-2.86,17.19-1,34.58-.83,51.88,0,5.83-2.06,14.77,1.84,19.83a6.49,6.49,0,0,0,9.72.71c2.7-2.66,4.53-6.15,7.21-8.9,3.35-3.43,6.85-6.7,10.39-9.92,7.31-6.64,14.71-13.14,21.45-20.37l-2.65-2.65L924.45,676c-.87,1-.64,2.85.83,3.13,18.77,3.57,37.82,5.88,56.31,10.83a1.9,1.9,0,0,0,2.31-2.31l-4.13-13.83-3.62,1c3.59,11.78,8.39,23.13,12.41,34.76,1.52,4.38,2.1,9.84,4.17,13.93a7.55,7.55,0,0,0,7,4.48c9-.09,11.45-11.73,14.46-18.18,5.38-11.52,11-22.92,16.2-34.55l-3.24-1.9-6.67,15.15a1.9,1.9,0,0,0,1.62,2.82c23.12,1.43,44.44-15.54,51.38-37,4-12.27,4.93-26.06,5.56-38.87a174.26,174.26,0,0,0-.43-23.19c-.42-5.11-3-13-.22-17.49,1.28-2.06-2-3.94-3.24-1.89-.47.76-.95,1.52-1.42,2.29l3.24,1.89c7-11.49,13.67-24.6,17.15-37.67,3.21-12.07,1.64-24.44-3.1-35.89a96.65,96.65,0,0,0-5.16-10.52c-1.09-1.93-3.16-4.2-3.82-6.29-.56-1.78.1-2.91.72-4.88a103.66,103.66,0,0,0,4.76-21.37c.81-8.42.78-19.32-3.63-26.9-2.8-4.81-9.13-9.07-14.78-6.88-6.24,2.41-10.37,9-14.72,13.76-5.52,6-11.2,12-16.45,18.27-1.54,1.84,1.1,4.51,2.65,2.66Z" transform="translate(-823.4 -349.68)"/><path class="error-graphic-main" d="M895,594.26c-4.76,15-6.16,29.12-8.22,44.62-9.38,3.17-21,3.65-36.46-5.73-7.66-4.67-25.3-36.26-24.93-40.68.69-8.11,15.92-34.56,33.81-37a35.94,35.94,0,0,1,29.54,9.6c7.65,7.51,8.31,18.64,6.26,29.16s-6.88,20-17.08,23.35c-6.12,2-13.24,1.74-18.5-2s-7.86-11.31-4.79-17,12.21-7.14,16.14-2.05" transform="translate(-823.4 -349.68)"/><path class="error-graphic-main" d="M893.21,593.76c-4.62,14.67-6.28,29.94-8.3,45.12l1.38-1.81a37.64,37.64,0,0,1-27.68-1.67,51.34,51.34,0,0,1-7.77-4.16c-.39-.26.08.1-.36-.27-.22-.2-.45-.39-.66-.59-.49-.45-1-.94-1.42-1.43a67.91,67.91,0,0,1-6.3-8.23A165.3,165.3,0,0,1,830,599.8a36.64,36.64,0,0,1-2.69-6.76c-.05-.21-.05-.71,0-.06,0-.15,0-.3,0-.45a1.23,1.23,0,0,0,0-.19c0-.45-.08.42,0,0,.05-.3.1-.6.17-.9a25.58,25.58,0,0,1,1.33-4,63.41,63.41,0,0,1,14-20.61,38.2,38.2,0,0,1,10.77-7.71,27.28,27.28,0,0,1,14.22-1.79c10.85,1.19,22.18,7.89,25.24,18.88a37.62,37.62,0,0,1,.36,16.46,39.87,39.87,0,0,1-5.14,14.52,20.44,20.44,0,0,1-11,8.73c-5.35,1.69-11.55,1.64-16.37-1.5-4-2.56-6.53-7.79-5.44-12.48a8.6,8.6,0,0,1,9.15-6.46,6.69,6.69,0,0,1,4.88,2.54,1.88,1.88,0,0,0,2.65,0,1.91,1.91,0,0,0,0-2.65c-3.26-4.06-9.15-4.46-13.65-2.45-5.09,2.27-7.57,7.63-6.87,13A16.78,16.78,0,0,0,862,619.16c5.87,2.41,12.8,1.9,18.56-.56,11-4.69,15.46-16.77,16.9-27.82.77-5.89.62-12.11-1.47-17.73a28.16,28.16,0,0,0-11.81-13.92c-9.7-6.14-23.07-8.08-33.54-2.79-8.85,4.47-15.77,12.72-20.88,21a54.54,54.54,0,0,0-5.31,11,10.36,10.36,0,0,0-.45,6.74,60.86,60.86,0,0,0,4,9c2,4,4.18,7.81,6.47,11.59s4.69,7.5,7.33,11a36,36,0,0,0,6.86,7.55,41.56,41.56,0,0,0,7.72,4.22,50.72,50.72,0,0,0,9,3.19,39.22,39.22,0,0,0,15.67.62,41,41,0,0,0,6.26-1.58,2,2,0,0,0,1.37-1.81c2-14.85,3.65-29.77,8.16-44.12.73-2.31-2.89-3.29-3.61-1Z" transform="translate(-823.4 -349.68)"/><path class="error-graphic-cream" d="M1051.32,461.46l15.28-16.68c1.22-1.33,2.76-2.79,4.55-2.52,2.17.32,3.12,2.86,3.55,5a67.51,67.51,0,0,1,.89,20.31c-.32,2.94-1.23,6.62-3.11,7.7-1.1.63-5.58-1.32-7.47-2.7A134.85,134.85,0,0,1,1051.32,461.46Z" transform="translate(-823.4 -349.68)"/><path class="error-graphic-cream" d="M1052.65,462.79l7.87-8.6,5.18-5.66c.84-.91,2.09-2.88,3.2-3.42,2.59-1.25,3.46.61,4,2.66a51.86,51.86,0,0,1,1.2,13.33c0,2.56.55,9.83-1.85,11.75s-7.44-2.71-9.07-3.94c-3.66-2.76-7.15-5.67-10.52-8.77-1.78-1.63-4.44,1-2.65,2.65a114.82,114.82,0,0,0,14.06,11.4c2.14,1.42,6.16,3.85,8.92,2.9,2.94-1,3.85-5.36,4.27-8a62.28,62.28,0,0,0-.09-18.44c-.45-3.17-.84-7.94-4.08-9.71s-6.33.92-8.5,3.24c-4.91,5.26-9.72,10.62-14.58,15.93C1048.37,461.91,1051,464.57,1052.65,462.79Z" transform="translate(-823.4 -349.68)"/><path class="error-graphic-cream" d="M964.46,442.21l-11.41-19.53c-.91-1.56-2.11-3.31-3.92-3.43-2.18-.14-3.66,2.14-4.52,4.15a67.65,67.65,0,0,0-5.16,19.66c-.31,2.95-.19,6.73,1.41,8.19.95.85,5.74-.12,7.88-1.07A134.58,134.58,0,0,0,964.46,442.21Z" transform="translate(-823.4 -349.68)"/><path class="error-graphic-cream" d="M966.08,441.26c-3.54-6.05-7-12.13-10.62-18.17-1.54-2.61-3.34-5.86-6.83-5.65-4.34.26-6,5.54-7.21,8.91a63.87,63.87,0,0,0-3.89,17.37c-.2,2.68-.32,7.43,2.39,9.15,2.49,1.57,6.88.07,9.32-.88a115,115,0,0,0,16.17-8.16c2.08-1.22.19-4.47-1.89-3.24-3.6,2.11-7.26,4.07-11,5.84-2.4,1.14-6.4,3.72-9.27,3.23-5.41-.92.48-18.73,1.83-22.32.88-2.35,2-7.71,6.39-3.71a12.76,12.76,0,0,1,1.66,2.83l4.52,7.74,5.23,8.95A1.88,1.88,0,0,0,966.08,441.26Z" transform="translate(-823.4 -349.68)"/><path class="error-graphic-cream" d="M885.33,682.86s0,12.42-1.25,19.86c-.3,1.78,4,5.44,5.32,6.7,1.58,1.51,2.51,0,4.29-1.32,5.65-4.05,9-7.53,13.91-12.25,2.14-2.06,4.51-2.56,4.21-4.71-.17-1.26-4.86-4.41-7.11-5.06C899.05,684.45,891.9,683.92,885.33,682.86Z" transform="translate(-823.4 -349.68)"/><path class="error-graphic-cream" d="M883.45,682.86q0,4.56-.23,9.11c-.17,3.6-1.85,8.95-.7,12.35a15.2,15.2,0,0,0,6.48,7c3.45,1.6,6.77-2.38,9.28-4.39,4.46-3.57,8.38-7.76,12.76-11.41,2.05-1.71,3.52-3.63,1.88-6.21-4.9-7.69-19.43-7.09-27.1-8.28-2.36-.36-3.37,3.25-1,3.62,7.18,1.11,16.55.79,22.76,5,2.31,1.57,2.74,1.39.35,3.49-1.36,1.2-2.69,2.37-4,3.64-2.5,2.41-5,4.83-7.7,7-1.2,1-3.22,3.1-5,3.37s-2.11-.41-3.41-1.81c-2.43-2.62-1.57-4.56-1.27-7.85.44-4.86.6-9.77.6-14.66A1.88,1.88,0,0,0,883.45,682.86Z" transform="translate(-823.4 -349.68)"/><path class="error-graphic-cream" d="M931.94,688.19a44.81,44.81,0,0,1,0,9.67c-.15.89,1.73,3.21,2.39,3.84s2.2.22,3.09-.42c2.82-2,3.84-4.49,6.28-6.85,1.07-1,2.26-1.28,2.11-2.36-.09-.62-2.43-2.2-3.56-2.53C939.43,688.73,935.22,688.72,931.94,688.19Z" transform="translate(-823.4 -349.68)"/><path class="error-graphic-cream" d="M930.06,688.19c.17,1.63.26,3.26.28,4.89,0,2.09-.71,4.54.15,6.5.65,1.48,2.07,3.55,3.65,4.14,2.22.82,4.46-.82,6-2.26,2.11-2,3.62-4.44,5.77-6.38,1.36-1.21,2.47-2.62,1.26-4.42-2.95-4.39-10.25-3.62-14.72-4.27-2.36-.35-3.38,3.26-1,3.61,3.44.5,7.71.11,10.88,1.61a12.15,12.15,0,0,1,1.15.7c.79.65.77.63-.07,0a10.59,10.59,0,0,0-1.66,1.48c-1.23,1.3-2.2,2.82-3.4,4.15s-2.4,3.05-3.71,1.29c-1-1.31-.64-2.27-.57-3.84a47.58,47.58,0,0,0-.25-7.16C933.56,685.82,929.81,685.79,930.06,688.19Z" transform="translate(-823.4 -349.68)"/><path class="error-graphic-cream" d="M986.44,700.61s5.51,10.76,6.11,18.28c.15,1.8,3.61,5.82,5.19,6.71,1.91,1.07,4.38-.66,5.79-2.33,4.48-5.32,5.22-10.61,8.8-16.39,1.56-2.52,3.73-3.59,2.91-5.6-.48-1.17-5.8-3.08-8.14-3.15C1001.22,697.94,993.07,700,986.44,700.61Z" transform="translate(-823.4 -349.68)"/><path class="error-graphic-cream" d="M984.82,701.55a72.58,72.58,0,0,1,3.78,8.91c1.3,3.72,1.25,8.21,3.3,11.56,1.44,2.34,4,5.69,7,5.78,4.28.14,7.37-4.72,9.17-7.94,1.33-2.37,2.26-4.94,3.41-7.4,1.3-2.81,3.14-5,4.74-7.62,1.4-2.28,1.28-4.47-1-6-8.12-5.53-20.06-1-28.8-.07-2.37.25-2.4,4,0,3.75,7-.73,15.08-3.61,22.08-2.25.88.17,4.61,1,4.83,1.81.14.54-2.15,3.14-2.64,3.89-2.31,3.51-3.52,7.61-5.46,11.31-1,2-2.56,5.45-4.77,6.26-2.4.88-4.4-1.64-5.34-3.38-1.36-2.53-1.42-6-2.29-8.73a75.58,75.58,0,0,0-4.79-11.73C987,697.51,983.73,699.4,984.82,701.55Z" transform="translate(-823.4 -349.68)"/><path class="error-graphic-cream" d="M1060.37,700.39s8,7.13,13.58,12.17c1.35,1.21,7.27.51,9,.07,2.12-.53,2.72-3.49,2.6-5.67-.41-6.94-3.51-11.29-4.89-18-.6-2.9.24-5.18-1.73-6.07-1.16-.53-6.33,1.75-8.08,3.31C1066.48,690.16,1064.77,695.4,1060.37,700.39Z" transform="translate(-823.4 -349.68)"/><path class="error-graphic-cream" d="M1059.05,701.72l7.21,6.46c2.66,2.38,5.35,6,9,6.77,2.56.54,7.31.41,9.62-1.16,3.08-2.08,2.76-6.66,2.24-9.81-.93-5.7-4-10.82-4.71-16.55-.33-2.73-.28-5.93-3.71-6.41-2.76-.38-6.74,2-8.77,3.63-4.7,3.77-7.07,9.86-10.86,14.41-1.54,1.85,1.1,4.51,2.65,2.66,4.61-5.54,7.35-13.58,14.49-16.32,2.07-.8,1.6-.71,2.35.94.53,1.19.41,3.51.72,4.78.79,3.21,2.16,6.23,3.14,9.37,1.15,3.66,2.86,9.3-1.89,10.67-3.51,1-5.88-.5-8.37-2.74l-10.44-9.36C1059.9,697.46,1057.24,700.1,1059.05,701.72Z" transform="translate(-823.4 -349.68)"/><path class="error-graphic-cream" d="M993.19,523c-12.53-7.08-18.7-4.77-32.34-3.73-1.79.14-7.27.43-11.57.65a29.14,29.14,0,0,1-16.47-4.42c-7.37-4.57-6-3.32-10.27-7.68-2.4-2.44-8.24-10.48-9.47-10.33,0,0-.34,23.4.22,27s3.05,8.57,4.18,10.35c10.5,16.52,16.75,33.77,27.37,50.21,4.13,6.38,8.36,12.88,14.29,17.63,11.57,9.26,27.56,10.38,41,16.67a57.26,57.26,0,0,1,27.62,28c5.53,12.19,3.77,23.37,0,36.23,22.45-2.09,38.9-22.91,43.81-44.56,3.06-13.48,1.66-29.34,1.39-43.16s0-28,8.7-38.73a57.15,57.15,0,0,0,8-13.89c2.07-4.94.87-6.38,1.5-7.72,2.34-4.92-11.11.47-15.25,1.92-9.22,3.24-12.33,2.08-16.54.13-6.13-2.85-11.72-4.62-14.12-5.76-10.45-5-24.14-9.49-34.5-7.45C1003.93,525.65,999,526.26,993.19,523Z" transform="translate(-823.4 -349.68)"/><path class="error-graphic-cream" d="M995.71,518.64c-6.36-3.56-13.11-5.75-20.46-5.61-6.36.13-12.7,1.13-19,1.49a73.43,73.43,0,0,1-10.38.29c-.2,0-1.51-.21-.75-.07l-.63-.12a29.27,29.27,0,0,1-2.91-.69c-.89-.26-1.75-.59-2.63-.9-.54-.18.09,0,.16.08l-.82-.38c-.57-.27-1.12-.55-1.66-.85-2.47-1.37-5-2.87-7.29-4.47-1.12-.78.73.65.09.09-.3-.28-.61-.54-.91-.83-.84-.8-1.66-1.64-2.46-2.48-1.93-2-3.6-4.29-5.39-6.42s-4.26-5.36-7.55-5.32a5.08,5.08,0,0,0-5,5c-.12,8.42-.39,16.91.07,25.32.41,7.5,4.58,13.59,8.24,19.87,4.92,8.46,9.1,17.32,13.53,26.05a210.31,210.31,0,0,0,14.67,25A63.67,63.67,0,0,0,954,604.79a45.61,45.61,0,0,0,11.24,7.43c7.94,3.74,16.48,5.74,24.78,8.49,2,.68,4,1.43,6,2.22.69.27-.76-.34-.09,0l.55.25c.49.21,1,.43,1.45.66.93.44,1.84.91,2.75,1.41a56.28,56.28,0,0,1,5.23,3.25c.43.3.84.6,1.26.91a5.41,5.41,0,0,1,.61.46s-.68-.55-.25-.19c.85.69,1.7,1.38,2.52,2.1a58,58,0,0,1,4.39,4.34c.61.66,1.2,1.34,1.78,2,.32.39.68.78,1,1.2-.7-1,.34.47.49.68a56.52,56.52,0,0,1,3.26,5c.51.89,1,1.8,1.47,2.72.2.4.4.81.59,1.21l.33.7c.14.31.4.92.14.28a38.24,38.24,0,0,1,2.12,6.85c.12.56.23,1.13.32,1.69,0,.21.07.43.1.64.12.76-.07-.83,0-.07.09,1.2.22,2.39.24,3.59a46.5,46.5,0,0,1-.33,6.57c0,.16-.14,1.06-.05.41s0,.11,0,.19c-.09.58-.18,1.15-.28,1.73-.23,1.24-.48,2.47-.76,3.71-.54,2.33-1.16,4.65-1.83,7-.83,2.88,1.56,6.64,4.82,6.33A49.15,49.15,0,0,0,1054.7,677a64.11,64.11,0,0,0,16.79-22.44,73.36,73.36,0,0,0,4.84-13.9,91.25,91.25,0,0,0,2.11-17.44c.4-11.27-.59-22.54-.52-33.82,0-2.68.1-5.36.31-8a31.62,31.62,0,0,1,.38-3.64c-.22,1.08,0,.37,0,.13s.1-.67.16-1c.12-.72.25-1.45.4-2.17a46.81,46.81,0,0,1,2.13-7.23c.33-.87,0-.06,0,.09.14-.36.32-.73.49-1.08s.46-1,.71-1.42a35.47,35.47,0,0,1,2.08-3.45c.2-.28.41-.54.6-.83.46-.67-.73.91.1-.13.59-.74,1.17-1.49,1.74-2.24.85-1.13,1.65-2.3,2.4-3.5a61.12,61.12,0,0,0,4.07-7.72,25.69,25.69,0,0,0,2.56-8.62c0-.57,0-1.14,0-1.72,0-.29.1-1.16,0,0s-.09.49,0,.28l-.41,1c.2-.45.4-.91.58-1.36a6,6,0,0,0-2.45-7.18,7.85,7.85,0,0,0-5-.94,46.41,46.41,0,0,0-10.46,2.77c-1.41.5-2.81,1-4.23,1.52s-2.57.82-3.88,1.14c-.46.11-.93.21-1.4.3-.27,0-.54.08-.81.14l.56-.08-.59.06a18.9,18.9,0,0,1-2.38,0c-1.25-.07,1.06.23,0,0-.4-.09-.8-.17-1.19-.28-.64-.18-1.24-.49-1.87-.66,1.52.4.55.23.06,0l-1.87-.85c-2.8-1.25-5.64-2.39-8.5-3.48l-2.91-1.11-1.32-.52c-.74-.3.5.21.52.22-.18-.1-.38-.17-.57-.26a110.89,110.89,0,0,0-15.82-6.15,44.72,44.72,0,0,0-24.72-1.39l-1.86.3c-.82.14,1.22-.12-.06,0l-.78.08a23.23,23.23,0,0,1-3.73.06c-.08,0-1.29-.1-.43,0s-.33-.07-.42-.09a14.38,14.38,0,0,1-1.44-.35c-.27-.08-2.12-.79-1-.29-.64-.29-1.26-.61-1.88-1a5,5,0,1,0-5,8.64,25.3,25.3,0,0,0,16.17,2.73c1.41-.19,2.81-.41,4.2-.68l1.82-.34c.92-.17-.13,0-.24,0a5.7,5.7,0,0,1,1.1-.11,38.84,38.84,0,0,1,7.39.19c1,.11,0,0-.12,0a6.18,6.18,0,0,1,.81.13q1,.16,2,.36c1.3.26,2.6.57,3.89.91,2.55.67,5,1.48,7.52,2.39,1.19.44,2.36.91,3.54,1.39s-.62-.28.14.06l.94.41,1.85.83c1.94.9,3.9,1.73,5.9,2.48l3.14,1.2,1.77.7.81.33c.23.09,1.29.53.5.2,2.19.92,4.33,2,6.56,2.86a20.52,20.52,0,0,0,11.62.42,91.39,91.39,0,0,0,10.44-3.38c1.57-.54,3.16-1.06,4.78-1.47.7-.18,1.41-.3,2.11-.47s-.7.09-.7.09c.16,0,.33,0,.49,0s.64,0,.95,0c.69-.06-1.51-.33-.65-.06a4.18,4.18,0,0,1-2.81-2.91,4.59,4.59,0,0,1,0-2c0,.22-.29.73.09-.14.51-1.17-.3.64-.39.94a14.75,14.75,0,0,0-.35,4.2c0,.74.07-.51.09-.57a6.1,6.1,0,0,0-.14.72,15.65,15.65,0,0,1-.41,1.53c-.09.27-.19.53-.28.79-.45,1.36.23-.5-.1.28s-.66,1.51-1,2.25a58.06,58.06,0,0,1-4,7.23c-.36.56-.74,1.12-1.13,1.66l-.53.72c-.84,1.16.38-.44-.17.23a37.77,37.77,0,0,0-6.64,11.4,55.63,55.63,0,0,0-3.31,15.35c-1,10.68-.1,21.46.13,32.15a153.8,153.8,0,0,1-.38,16.77c-.06.66-.13,1.33-.2,2,0,.36-.08.73-.13,1.1,0,.2-.14,1,0,0-.21,1.44-.44,2.86-.73,4.28a64.33,64.33,0,0,1-1.66,6.42c-.33,1-.67,2-1,3.06-.21.56-.43,1.12-.65,1.68l-.27.66c-.46,1.16.45-1-.05.14-.93,2.09-1.93,4.14-3,6.13a60.9,60.9,0,0,1-3.46,5.48c-.34.49-.69,1-1,1.45a5.67,5.67,0,0,0-.43.57c.46-.85.34-.43.12-.17-.75.92-1.5,1.84-2.3,2.72a52.9,52.9,0,0,1-4.64,4.59q-.6.52-1.2,1l-.55.44c-.89.75.65-.47,0,0-.89.66-1.78,1.31-2.7,1.91a43.76,43.76,0,0,1-5.76,3.2l-.63.29c-1,.48.78-.3.08,0-.49.19-1,.39-1.46.57-1,.37-2.09.71-3.15,1s-2,.52-3.08.71a13.18,13.18,0,0,0-1.57.27c.93-.32.67-.08.26,0l-1.07.12,4.83,6.33c2.75-9.56,4.6-19.34,2.92-29.26-1.54-9.1-6.4-17.51-12.23-24.54a60.67,60.67,0,0,0-19.79-15.63c-8-3.91-16.59-6-25-8.69-2-.64-3.92-1.32-5.84-2.08l-.74-.3c-.68-.26.77.34.1,0-.43-.19-.85-.37-1.27-.57-1-.46-2-1-3-1.49s-1.72-1-2.55-1.48c-.45-.29-.89-.57-1.33-.87l-.65-.46c-.11-.08-1-.73-.45-.32l-.13-.1-.66-.54q-.66-.55-1.29-1.14c-.84-.77-1.64-1.58-2.42-2.41s-1.53-1.71-2.25-2.59l-.54-.67-.13-.17-.27-.35-.64-.87c-1.35-1.86-2.63-3.78-3.89-5.7-2.68-4.1-5.22-8.28-7.58-12.57-4.73-8.63-8.87-17.57-13.45-26.28-2.34-4.46-4.81-8.86-7.49-13.12a34,34,0,0,1-2.19-4.07l-.3-.66c-.3-.64.33.83.07.17-.16-.41-.33-.82-.48-1.23a21.86,21.86,0,0,1-.88-3c-.07-.29-.09-.61-.17-.9.46,1.64.16,1.41.12.85,0-.35-.05-.7-.07-1-.06-1-.09-2-.11-3-.06-2.67-.07-5.33-.07-8,0-4.53,0-9.07.09-13.6,0-.28,0-.56,0-.84l-5,5a4.23,4.23,0,0,1-1.71-.39c-.9-.38-.58-.26-.37-.14.59.34-.76-.7-.56-.44s.75.69,1.08,1c.84.89,1.63,1.83,2.42,2.77,1.59,1.93,3.11,3.94,4.82,5.77a38.81,38.81,0,0,0,4.93,4.57c1.88,1.42,4,2.54,6,3.78a35.58,35.58,0,0,0,11.92,4.82,43.41,43.41,0,0,0,10.74.49c6.52-.34,13-1,19.51-1.51,1.65-.13,3.31-.21,5-.18.77,0,1.55.06,2.32.13l.62.06c.71.06-.21,0-.39-.06a5.83,5.83,0,0,0,1.25.21,31.8,31.8,0,0,1,4.92,1.4l.7.27c.57.23.19,0-.13-.06a6.4,6.4,0,0,1,1.46.67c1,.51,2.08,1.06,3.1,1.63a5,5,0,1,0,5-8.64Z" transform="translate(-823.4 -349.68)"/><path class="error-graphic-cream" d="M827.35,586c1.34,15.62,7.48,32.14,19.94,39.24a41.09,41.09,0,0,0,41-.68c-.77,5.35-2.77,8.65-3.26,12.79-.35,3-5.24,3-8.25,3.42-13.61,1.8-27.63-4.63-36.44-15.15S828.52,599.7,827.35,586Z" transform="translate(-823.4 -349.68)"/><path class="error-graphic-cream" d="M824.85,586c1,11.82,4.37,23.92,11.88,33.33,7.66,9.61,20.28,14.06,32.35,13.52a43.22,43.22,0,0,0,20.48-6.14l-3.67-2.82c-.52,3.42-1.77,6.57-2.67,9.89a20.74,20.74,0,0,0-.49,2.21c0,.26-.13.91-.14,1s-.12.4,0,.15,0-.11-.09.12l.1-.15c-.15,0-.37.27-.64.37a11.61,11.61,0,0,1-2,.47,40.42,40.42,0,0,1-18.49-1,41.32,41.32,0,0,1-17-10.44,44.65,44.65,0,0,1-10.17-17.25A98.87,98.87,0,0,1,829.85,586a2.57,2.57,0,0,0-2.5-2.5,2.52,2.52,0,0,0-2.5,2.5c1.3,15,4.42,31.18,14.89,42.7a46.6,46.6,0,0,0,18.9,12.51,41.89,41.89,0,0,0,11,2.27,50.94,50.94,0,0,0,10.17-.56,12.71,12.71,0,0,0,5.1-1.42,5.66,5.66,0,0,0,2.65-4.36c.69-4.06,2.51-7.82,3.13-11.92.3-2-1.64-4.06-3.68-2.82a38.86,38.86,0,0,1-32.93,3.24,30.07,30.07,0,0,1-12.71-8.5,42.1,42.1,0,0,1-7.56-13.11,69.28,69.28,0,0,1-4-18,2.57,2.57,0,0,0-2.5-2.5A2.52,2.52,0,0,0,824.85,586Z" transform="translate(-823.4 -349.68)"/><path class="error-graphic-lines" d="M1046.27,450.9c-10.18-7.49-22.82-11.43-35.14-13.59s-24.92-2.7-37.14-.27c-2.36.48-1.36,4.09,1,3.62,22.31-4.45,50.82-.18,69.39,13.48,1.94,1.43,3.82-1.82,1.89-3.24Z" transform="translate(-823.4 -349.68)"/><path class="error-graphic-lines" d="M978.41,442.26l-15.2-28.73c-1.13-2.13-4.37-.24-3.24,1.9.1.17.19.35.28.53l3.24-1.89c-2.59-4.45-5-9.44-10-11.64-7.69-3.39-13.78,2.91-17.34,9.1-8.06,14-10.32,32.09-8,48,.36,2.38,4,1.37,3.62-1-1.72-11.58-.58-25.28,3.41-36.18,2.16-5.91,7.42-19.39,15.9-16.89,4.62,1.37,6.88,6.63,9.11,10.46,1.22,2.1,4.33.25,3.24-1.89l-.28-.54-3.24,1.9,15.21,28.72c1.13,2.13,4.36.24,3.23-1.89Z" transform="translate(-823.4 -349.68)"/><path class="error-graphic-lines" d="M1079.35,485.86c10.14,15.44,17.51,32.76,13.34,51.39-2.28,10.15-5.09,20.56-11.63,28.89-6.69,8.53-15,17.54-24.81,22.34-2.17,1.06-.27,4.29,1.89,3.24,10.24-5,18.76-14.27,25.75-23.11s10-19.65,12.41-30.36c4.41-19.66-3-37.95-13.71-54.28-1.32-2-4.57-.13-3.24,1.89Z" transform="translate(-823.4 -349.68)"/><path class="error-graphic-lines" d="M928.7,457.74c-13.39,15.28-24.42,34.87-22.76,55.84.87,11.15,2.46,22.66,8.32,32.43s12.82,19.82,22.26,26.18c2,1.36,3.89-1.89,1.89-3.23-9-6.09-16-16.21-21.35-25.57s-6.79-20.42-7.47-31c-1.24-19.51,9.33-37.85,21.76-52,1.58-1.81-1.06-4.48-2.65-2.66Z" transform="translate(-823.4 -349.68)"/><path class="error-graphic-lines" d="M885.11,639a41,41,0,0,1-10.49,2.24,34.76,34.76,0,0,1-12.24-1.54,51.46,51.46,0,0,1-25-16.87,45.93,45.93,0,0,1-10.21-26.32,39.84,39.84,0,0,1,8-25.51,37.67,37.67,0,0,1,21.73-14.43,34.22,34.22,0,0,1,27.73,6.21,31.57,31.57,0,0,1,12.11,25.71,29.06,29.06,0,0,1-13.23,23.14c-7.46,4.8-20,6.7-25.89-1.57-2.38-3.33-3.44-8.06-1.32-11.78a8.88,8.88,0,0,1,8.89-4,6.65,6.65,0,0,1,4.24,2.47,1.9,1.9,0,0,0,2.65,0,1.91,1.91,0,0,0,0-2.65c-2.85-3.54-7.91-4.38-12.09-3.06a12,12,0,0,0-8.41,9.78,16.16,16.16,0,0,0,4.9,13.63c4.09,3.93,10.06,5.42,15.6,5,10.62-.83,20.08-7.89,24.87-17.27a33.88,33.88,0,0,0-.81-31.51,36.28,36.28,0,0,0-26.69-18.13,38.39,38.39,0,0,0-29.24,8,44.53,44.53,0,0,0-15.84,25c-2.36,10.49-.41,21.55,4.48,31a53.53,53.53,0,0,0,23,22.81c8.94,4.65,18.7,7,28.68,4.82a49.12,49.12,0,0,0,5.58-1.56c2.27-.76,1.3-4.38-1-3.61Z" transform="translate(-823.4 -349.68)"/><path class="error-graphic-lines" d="M970,586a45.36,45.36,0,0,0,36.2,5.66c2.33-.61,1.34-4.23-1-3.61a41.6,41.6,0,0,1-33.3-5.28c-2-1.31-3.93,1.94-1.9,3.23Z" transform="translate(-823.4 -349.68)"/><path class="error-graphic-cream" d="M1054.69,481c-1.58-1.81-5.55-5.09-8-5.55s-5.07-.12-6.32,1.88a5.39,5.39,0,0,0,0,5.1c.78,1.6,4.3,4.54,5.68,5.66a12.2,12.2,0,0,0,4.47,2.8,5.39,5.39,0,0,0,5-.84c1.77-1.55,1.87-4.4.86-6.53s-2.87-3.72-4.68-5.24" transform="translate(-823.4 -349.68)"/><path class="error-graphic-cream" d="M1056,479.69c-3.48-3.79-8.76-7.78-14.17-5.75-6,2.27-4,9.11-.49,12.54s9.85,9.29,15.15,5.2c5.74-4.42.48-11.4-3.43-14.72-1.83-1.55-4.5,1.09-2.65,2.66a17.91,17.91,0,0,1,3.9,4c1.3,2.13,1.23,5.66-2,5.71-3,0-6.23-3.48-8.29-5.47-1.12-1.07-2.43-2.27-2.38-4,.06-2.55,2.89-3.06,4.89-2.52,2.61.71,5.06,3.05,6.85,5,1.63,1.78,4.28-.88,2.65-2.65Z" transform="translate(-823.4 -349.68)"/><path class="error-graphic-cream" d="M961.59,466.13c1.93-1.43,6.51-3.8,9-3.74s5,1,5.77,3.18a5.39,5.39,0,0,1-1.05,5c-1.1,1.4-5.16,3.52-6.75,4.32a12.16,12.16,0,0,1-5,1.79,5.36,5.36,0,0,1-4.74-1.88c-1.4-1.9-.89-4.7.54-6.57a16.58,16.58,0,0,1,5.69-4.13" transform="translate(-823.4 -349.68)"/><path class="error-graphic-cream" d="M962.54,467.75c2-1.42,4.65-3,7.13-3.4a6.32,6.32,0,0,1,2.17,0c1.77.38,2.25.83,2.33,2.7.11,2.41-1.11,3.07-3,4.23-2.23,1.34-5.12,3.34-7.75,3.43-3.68.12-4.15-3.68-2-6a16.88,16.88,0,0,1,4.64-3.07c2.13-1.13.24-4.37-1.89-3.24-4.53,2.41-11.21,8-6.6,13.65,4.17,5.08,11.21,1.05,15.53-1.56s8.21-8.55,2.88-12.43c-4.77-3.47-11-.58-15.26,2.38-2,1.38-.09,4.63,1.89,3.24Z" transform="translate(-823.4 -349.68)"/><path class="error-graphic-lines" d="M1031.87,506.66c9.65,0,9.67-15,0-15s-9.67,15,0,15Z" transform="translate(-823.4 -349.68)"/><path class="error-graphic-lines" d="M977.43,496.94c9.66,0,9.67-15,0-15s-9.66,15,0,15Z" transform="translate(-823.4 -349.68)"/><path class="error-graphic-lines" d="M1033.25,540.79c-3.68,7.85-11.53,13.14-20.42,11.55s-14.47-9.57-13.64-18.39c.19-2.1-3.26-2.57-3.69-.5-1.55,7.59-9.51,12.63-17,12.12-10-.67-16.67-9.22-17-18.82-.09-2.4-3.84-2.42-3.75,0,.42,11.06,7.84,21,19.24,22.42,9.5,1.18,20.11-4.88,22.12-14.73l-3.68-.49a20.4,20.4,0,0,0,16.39,22c10.42,2,20.27-3.92,24.66-13.28,1-2.17-2.22-4.08-3.24-1.89Z" transform="translate(-823.4 -349.68)"/><path class="error-graphic-lines" d="M997.59,532.41c-3.64,0-5.82-3.49-7.7-6.62-1-1.74-2.06-4.13-.67-5.62,1-1.06,2.64-1,4.08-.86,1.91.18,4.52.46,6.43.64l5.65,1.08c1.42.27,3,.69,3.68,2,.91,1.82-.72,3.83-2.22,5.21C1004.16,530.69,1001.09,533.43,997.59,532.41Z" transform="translate(-823.4 -349.68)"/><path class="error-graphic-lines" d="M997.59,530.53c-2.52-.24-5.27-3.31-6.08-5.68-1.74-5.09,3.46-3.55,6.34-3.21,1.65.19,3.28.48,4.91.8,2,.39,3,0,3.43,2.1.6,3.12-5.33,6.56-8.1,6.06-2.36-.42-3.37,3.19-1,3.62,5.17.93,12.16-3.4,13.82-8.49,2.2-6.7-8.29-7.34-12.4-7.77-4.27-.45-12.91-2-11.71,5.18.85,5.07,5.6,10.65,10.79,11.14C1000,534.51,1000,530.76,997.59,530.53Z" transform="translate(-823.4 -349.68)"/><path class="error-graphic-lines" d="M924.39,560.22A149.75,149.75,0,0,0,899.65,593,128,128,0,0,0,886,630.89a130.46,130.46,0,0,0-2.21,20.77c-.25,8.6-.66,17.2-1,25.8l-.49,12.94c-.16,4-.64,8.14-.21,12.13.37,3.46,1.69,6.77,4.64,8.82s6.59,1.55,9.45-.28c3.22-2.06,5.69-5.23,8.25-8l8.79-9.57,17.42-19,4.39-4.78-2.65-2.65L924.41,676c-.87,1-.65,2.85.82,3.13l45.87,8.82,10.44,2a1.9,1.9,0,0,0,2.31-2.31l-4.13-13.83c-.68-2.3-4.3-1.32-3.61,1l7.62,25.54L987.5,713c1.15,3.87,2,8.1,4,11.64,1.75,3.08,4.84,5.66,8.52,5.72,3.44.06,6.11-2.28,7.88-5,2.05-3.16,3.34-6.88,4.85-10.31l5.34-12.12,12.2-27.67-3.24-1.9-6.68,15.15a1.91,1.91,0,0,0,1.62,2.82c17.94,1.39,35.54-9.45,45.29-24a82.23,82.23,0,0,0,11.29-27.18,138,138,0,0,0,3.49-30.1,220.54,220.54,0,0,0-3-36,1.89,1.89,0,0,0-2.31-1.31,1.92,1.92,0,0,0-1.3,2.31c3.08,19.81,4.21,40.14.36,59.92a86.6,86.6,0,0,1-9.35,26.51,53.39,53.39,0,0,1-17.61,18.73c-8,5.09-17.36,8.13-26.9,7.39l1.62,2.82,6.68-15.14a1.94,1.94,0,0,0-.68-2.57,1.89,1.89,0,0,0-2.56.67q-10.08,22.88-20.15,45.74c-1.08,2.44-2.29,5.51-4.71,6.94-2.79,1.64-5.78-.52-7.24-2.92-1.92-3.17-2.66-7.11-3.71-10.63L987.7,700.5l-8-26.73-3.61,1,4.12,13.83,2.31-2.3-43.63-8.4-12.68-2.43.83,3.13,7.94-8.85c1.61-1.79-1-4.44-2.65-2.65l-33.48,36.43c-2,2.15-4.51,5.34-7.72,5.42s-4.79-3.18-5.25-5.82c-.63-3.63-.08-7.57.06-11.24l.48-12.44.95-24.89a158.85,158.85,0,0,1,1.7-20,124.44,124.44,0,0,1,12.06-36.4A144.72,144.72,0,0,1,927,562.87c1.7-1.72-.95-4.38-2.65-2.65Z" transform="translate(-823.4 -349.68)"/><path class="error-graphic-lines" d="M928.66,679.74l27.7,5.31-1.12-2.76c-1.1,2.26-3,4.15-4.58,6.1-2,2.47-4.07,4.94-6.19,7.33a32.37,32.37,0,0,1-2.5,2.47c-1.56,1.44-3.59,3.4-5.89,3.23s-3.77-2.14-4.41-4.07c-.81-2.4-.52-5-.59-7.5-.11-4-.11-7.94-.06-11.92,0-2.41-3.72-2.42-3.75,0,0,3.94-.06,7.87.06,11.8.08,2.74-.16,5.57.61,8.24a10.37,10.37,0,0,0,4.68,6.23c5.22,2.87,10.14-1.35,13.67-4.91,2.08-2.1,3.92-4.49,5.8-6.77q2-2.4,3.92-4.87a21,21,0,0,0,2.47-3.46,1.9,1.9,0,0,0-1.12-2.76l-27.71-5.31c-2.36-.45-3.37,3.16-1,3.62Z" transform="translate(-823.4 -349.68)"/><path class="error-graphic-lines" d="M1071.41,651.6c-3.44,7.83-7.91,15.43-13.86,21.61a41.84,41.84,0,0,1-9.33,7.2c-3.3,1.94-6.37,4-10,5.14a1.91,1.91,0,0,0-.45,3.43l22.08,15.92c3.91,2.82,7.76,5.78,11.77,8.45,3.59,2.39,8.05,4,12.25,2.21,7.35-3.21,4.43-12.42,2.87-18.3-1.72-6.52-3.48-13-5.22-19.54-2.27-8.54-4.53-17.09-6.65-25.67-.57-2.34-4.19-1.35-3.61,1,3.42,13.88,7.19,27.67,10.88,41.48.6,2.25,1.2,4.5,1.78,6.76.72,2.79,1.88,6.48.32,9.18-2.11,3.63-7.07,1.92-9.83.22-3.86-2.38-7.46-5.27-11.14-7.92l-23.61-17-.44,3.43a39.31,39.31,0,0,0,8.49-4,81.5,81.5,0,0,0,8.12-5.25c5.42-4.28,9.74-9.92,13.33-15.77a90.66,90.66,0,0,0,5.53-10.62,1.94,1.94,0,0,0-.68-2.57A1.89,1.89,0,0,0,1071.41,651.6Z" transform="translate(-823.4 -349.68)"/><path class="error-graphic-lines" d="M1040.51,461.28l14.39-17.4c4.37-5.29,12.35-18.73,20.37-15,5.19,2.38,6.84,9.7,8,14.78a60.76,60.76,0,0,1,1.32,17.74,83.88,83.88,0,0,1-5.43,23.06c-.85,2.26,2.77,3.23,3.62,1,3.41-9,5.75-19,5.72-28.65,0-9.49-1.47-25.77-10.92-31-8.89-5-16.35,4.64-21.32,10.64q-9.21,11.13-18.41,22.25c-1.52,1.85,1.12,4.52,2.66,2.66Z" transform="translate(-823.4 -349.68)"/><path class="error-graphic-lines" d="M986.26,546.42c5.3-1.64,7.6-5.41,10.51-9-1,4.59,6.77,13.84,7.22,13h0a43.74,43.74,0,0,1-8.46.24c-1.86-.07-5.45-1.38-9.49-4.08" transform="translate(-823.4 -349.68)"/><path class="error-graphic-lines" d="M986.76,548.23c5.13-1.81,8.06-5.38,11.33-9.52L995,536.88c-.57,4.1,1.77,8,4.13,11.21a14.9,14.9,0,0,0,3.09,3.48,3.25,3.25,0,0,0,1.22.67,4.09,4.09,0,0,0,1.3-.1c2.38-.4,1.37-4-1-3.61A22.15,22.15,0,0,1,987,544.91c-2-1.31-3.92,1.94-1.89,3.24a25.85,25.85,0,0,0,19.6,4l-1-3.61a5.73,5.73,0,0,0-.67.22c1-.3,1.19.33,1.15-.39,0-.55-1.94-2.26-2.3-2.76-1.42-2-3.68-5.11-3.31-7.72.22-1.58-1.82-3.49-3.14-1.82-2.78,3.52-5.26,7-9.68,8.56-2.26.79-1.28,4.42,1,3.61Z" transform="translate(-823.4 -349.68)"/><path id="questionMarkFill" class="error-graphic_qm-fill" d="M1012.74,371.05c-1.22,3.61-1.69,4.41-3.83,5.83a7.19,7.19,0,0,1-3.07,1,3.77,3.77,0,0,1-2.73-1.09,5.34,5.34,0,0,1-1.72-3.47c-.25-1.8.15-7.94,1.36-10.68,1.52-3.42,3.08-6,6.45-8s7.17-3.47,10.91-3.09c7.24.75,14.39,5,17.39,11.8,1.49,3.36,1.78,8.29-.52,13.5-1.38,3.13-6.07,7.95-9.22,10.56-4,3.29-6,8.07-6.76,13.41-.45,3,.75,6.86-.94,8.77a4.68,4.68,0,0,1-4,1.39c-3.15-.33-5.24-3-5.93-5.87a16.07,16.07,0,0,1,.12-6.9,35.52,35.52,0,0,1,9.68-18.1c2.61-2.6,5.82-5.15,6.26-8.81a6.92,6.92,0,0,0-5.39-7.35,7.06,7.06,0,0,0-4.87.88C1013.92,366.33,1013.35,369.23,1012.74,371.05Z" transform="translate(-823.4 -349.68)"/><path id="questionMark" class="error-graphic_qm-lines" d="M1010.93,370.56c-.77,2.25-1.51,4.44-4,5.17a2.37,2.37,0,0,1-3-.83,4.48,4.48,0,0,1-.75-2.77c-.09-5.27,1.08-11.18,5.32-14.73a17.79,17.79,0,0,1,9.71-4,18.48,18.48,0,0,1,9.16,2.23c5.48,2.81,9.68,8,9.38,14.38-.32,6.68-5.06,11.57-9.87,15.69a22.73,22.73,0,0,0-7.87,17.69c.05,1.39.37,3.06-.09,4.42s-2,1.5-3.09,1.26c-3.08-.65-4.19-4.17-4.17-6.93a27.23,27.23,0,0,1,2.61-10.54,34.1,34.1,0,0,1,5.7-8.82c2.21-2.45,5-4.48,6.67-7.34a8.85,8.85,0,0,0,.21-9.19,8.62,8.62,0,0,0-7.11-4.27,7.58,7.58,0,0,0-7.44,4.59,39.19,39.19,0,0,0-1.39,4c-.76,2.29,2.86,3.28,3.62,1a20.1,20.1,0,0,1,1.47-4,3.72,3.72,0,0,1,3.59-1.83,4.5,4.5,0,0,1,3.27,1.43,5,5,0,0,1,1.45,3.91c-.34,3.38-3.83,5.79-6,8a36.56,36.56,0,0,0-6.65,9.33c-3.12,6.24-6.38,16.27-.7,22,2.54,2.59,6.95,3.42,9.88,1s1.79-6.31,1.92-9.52a20.34,20.34,0,0,1,3.33-9.89c1.88-2.83,4.88-4.8,7.22-7.24a25.62,25.62,0,0,0,5.84-8.3,19.36,19.36,0,0,0,.89-11.41c-1.67-6.87-7.82-11.94-14.26-14.16a19,19,0,0,0-11.2-.65,21.25,21.25,0,0,0-9.86,5.59c-4.09,4.47-5.7,11.08-5.25,17,.23,3.07,2.12,6.26,5.4,6.79,3,.48,6.31-1.47,7.91-3.93a18.79,18.79,0,0,0,1.76-4.18C1015.32,369.26,1011.7,368.28,1010.93,370.56Z" transform="translate(-823.4 -349.68)"/><circle id="questionMarkDot" class="error-graphic_qm_dot" cx="196.59" cy="76.64" r="7.08"/></svg>