<svg role="img" aria-labelledby="loadingShibaTitle loadingShibaDesc" id="Layer_1" data-name="Layer 1" xmlns="http://www.w3.org/2000/svg" viewBox="0 0 276.53 366.97">
<title id="loadingShibaTitle">Construction Shiba Inu</title>
<desc id="loadingShibaDesc">Shiba Inu wearing a construction hard hat, sticking its tongue out</desc>
<defs><style>.cls-1{fill:#f8a768;}.cls-2{fill:#fffbde;}.cls-3{fill:#421d00;}.cls-4{fill:#f7bdd6;}.cls-5{fill:#ffe329;}.cls-6{fill:#231f20;}.cls-7{fill:#c6b759;}</style></defs><path class="cls-1" d="M928.12,669.28l27.71,5.31c-.92,2-11.11,14-12,14.84-2.77,2.55-5.79,5.8-9.5,5.14-2.65-.47-4.65-2.82-5.49-5.37s-.58-5.81-.65-8c-.06-1.74-.16-4.5-.07-11.92" transform="translate(-822.23 -356.52)"/><path class="cls-1" d="M927.62,671.09l27.71,5.31-1.12-2.75c-1.1,2.26-3,4.15-4.59,6.09-2,2.48-4.07,4.94-6.18,7.34a34.28,34.28,0,0,1-2.5,2.47c-1.56,1.43-3.59,3.39-5.89,3.23s-3.77-2.15-4.42-4.08c-.8-2.4-.51-5-.58-7.5-.11-4-.11-7.94-.06-11.92,0-2.41-3.73-2.41-3.75,0,0,3.94-.06,7.87.06,11.81.08,2.74-.16,5.57.6,8.24a10.37,10.37,0,0,0,4.69,6.22c5.22,2.88,10.14-1.35,13.67-4.91,2.08-2.09,3.91-4.49,5.79-6.76,1.33-1.61,2.65-3.23,3.93-4.88a21,21,0,0,0,2.47-3.46,1.9,1.9,0,0,0-1.12-2.75l-27.71-5.31c-2.36-.46-3.37,3.16-1,3.61Z" transform="translate(-822.23 -356.52)"/><path class="cls-1" d="M1069.57,644.12c-4.91,11.23-13,23.43-22.8,28.87-4.44,2.49-6.23,4.24-11.55,5.94l31.76,22.9a22.44,22.44,0,0,0,7,3.89c2.59.71,5.65.34,7.51-1.6,2.61-2.73,1.88-7.11,1-10.76C1078.47,677,1073.59,660.46,1069.57,644.12Z" transform="translate(-822.23 -356.52)"/><path class="cls-1" d="M1068,643.17c-3.44,7.83-7.9,15.43-13.85,21.61a42.07,42.07,0,0,1-9.33,7.2c-3.31,1.94-6.37,3.95-10,5.14a1.9,1.9,0,0,0-.44,3.43L1052.9,694l9.26,6.68c3.17,2.28,6.28,4.93,9.94,6.39,3.24,1.29,7.19,1.27,10-1s3.35-5.87,2.94-9.23a94,94,0,0,0-2.72-11.79q-1.63-6.28-3.34-12.55c-2.59-9.62-5.23-19.22-7.61-28.89-.58-2.34-4.19-1.35-3.62,1,3.93,15.92,8.55,31.67,12.51,47.58.71,2.83,1.87,6.3.78,9.18s-4.73,3.21-7.36,2.28c-3.4-1.21-6.37-3.89-9.26-6s-5.78-4.16-8.66-6.25l-19.6-14.13-.45,3.43a39.56,39.56,0,0,0,8.49-4,83.47,83.47,0,0,0,8.13-5.25,59.36,59.36,0,0,0,13.32-15.77,88.53,88.53,0,0,0,5.53-10.63,1.93,1.93,0,0,0-.67-2.56A1.9,1.9,0,0,0,1068,643.17Z" transform="translate(-822.23 -356.52)"/><path class="cls-1" d="M1038.15,454l20.71-25.05a32.78,32.78,0,0,1,6.38-6.4,10.66,10.66,0,0,1,8.49-1.93c4.47,1.16,7,5.91,8.57,10.38a62.08,62.08,0,0,1,2.34,30.78c-.54,3-1.27,11.18-3.08,15.13-.56,1.24,1,2.56,1.76,3.66,5.77,7.88,12.9,30.23,10.29,50.57-1.36,10.58-14.22,30.76-19.31,39-.5.81,4.09-4.06-.12,2.72,2.4,15.33,1.13,27.92-.41,43.36-1.6,16.11-.79,32.59-10.21,45.76s-26.75,17.9-42.88,16.57l7-10.21c-6.78,15.39-16.7,31.14-23.49,46.54-1.66,3.76.1,5.22-4.31,5.13a5.52,5.52,0,0,1-4.06-1.39c-2.6-2.33-5-3.61-5.95-6.83l-13-43.44,4,10.86c-17.48-3.36-37.8-6.81-55.27-10.17l7.08-6.54c-12.59,10.32-24.38,22.49-35.77,34.88-2.78,3-7,5-11.09,3.46-1.56-.57.81-2,0-3.46-1.72-3-3.06-2.58-2.94-5.94l1.74-45.29c.78-35,17.42-64.7,40.1-90.53-.3-5.88-3.09-7.56-8.48-14.35-2.75-3.47-7.29-23.6-6.64-34.25,1-16.44,5.12-33.48,19.43-53.87-.67-3.81-.44-13.8-.34-17.67a62.14,62.14,0,0,1,8.54-29.67c2.4-4.07,5.88-8.2,10.5-8.43a10.68,10.68,0,0,1,7.92,3.61c2.08,2.17,6.36,10.25,4.95,7.57l15.2,28.72-2.3-4.35c20.78-4.37,53.9.86,70.83,13.67" transform="translate(-822.23 -356.52)"/><path class="cls-1" d="M1039.47,455.3c7.07-8.54,14.08-17.13,21.2-25.62,2.84-3.38,6.1-7.26,10.86-7.25,5.7,0,8.08,6.1,9.53,10.79a62.91,62.91,0,0,1,1.78,28c-.4,2.62-.72,5.27-1.18,7.89s-2,5.62-2,8.2c-.05,2.11,1.68,3.55,2.78,5.21a42.28,42.28,0,0,1,4,8c5.12,13.15,8.62,30.58,4.4,44.39-2.14,7-5.83,13.51-9.44,19.8-1.7,3-3.47,5.92-5.26,8.85-1.15,1.87-2.92,3.94-3.63,6-.55,1.62,1.39,2.85,2.75,2.11.67-.36,1.47-.72.71-.76l-1.8-1.37a12,12,0,0,0-1.78,3.39c-.48,3,1,7.63,1.13,10.82a143.39,143.39,0,0,1-.25,17.59c-.86,12.47-1.57,25.26-3.36,37.62-1.75,12.12-6.47,23.68-17.13,30.55-9.48,6.1-21,7.77-32.05,7l1.61,2.82,7-10.21-3.23-1.89c-4.07,9.09-8.85,17.83-13.54,26.61-2.06,3.86-4.11,7.73-6.06,11.65-1.75,3.53-3,7.47-4.79,10.91-.1.51-.21,1-.32,1.54A6.38,6.38,0,0,1,996,716.3a11.91,11.91,0,0,1-4.37-5.06c-1.79-4.12-2.66-8.92-3.94-13.22l-9-30.22-3.61,1L979,679.66l2.3-2.31c-18.39-3.52-36.87-6.64-55.27-10.16l.83,3.13,7.09-6.55c1.8-1.66-.82-4.16-2.65-2.65-12.14,10-23.19,21.27-33.87,32.82a21.72,21.72,0,0,1-4.09,3.87c-.85.54-5.71,2.43-6,1.92-.09-.18.41-1.4.39-1.79,0-1.18-.66-1.82-1.21-2.82-2-3.65-1.75-6.4-1.59-10.62l.49-12.8c.6-15.58.18-31.56,3.51-46.87a131,131,0,0,1,15.37-38.4,177.31,177.31,0,0,1,11.16-16.67q3.29-4.35,6.78-8.52c1.41-1.69,3.77-3.49,4.27-5.67,1-4.15-3.35-8.87-5.71-11.67a28.28,28.28,0,0,1-6.28-12.59c-6.43-25.1-1.43-49.88,12.35-71.72,1.58-2.52,3.84-4.6,3.81-7.59s-.33-6-.33-9c0-7,.24-13.95,2-20.78,1.73-6.68,5.81-20.16,13.41-22.5,7-2.15,10.53,5.33,13.41,10.28,1.22,2.1,4.32.25,3.24-1.89l-.28-.54-3.24,1.89,15.2,28.73c1.13,2.13,4.37.24,3.24-1.89l-2.3-4.36L974,434.69c22.31-4.46,50.82-.18,69.39,13.48,1.94,1.43,3.81-1.82,1.89-3.24-10.19-7.49-22.82-11.43-35.15-13.59s-24.91-2.71-37.13-.27a1.9,1.9,0,0,0-1.12,2.76l2.3,4.35,3.24-1.89-15.2-28.73c-1.13-2.13-4.37-.24-3.24,1.89l.28.54,3.24-1.89c-2-3.36-3.77-7.15-6.82-9.66-4.56-3.74-10.26-3.84-14.82-.1-5.27,4.34-8.34,11.61-10.52,17.9a69,69,0,0,0-3.58,21.41c-.06,2.86-.1,5.71-.05,8.57.05,2.69.61,5.27-.41,7.53-1.68,3.75-4.66,7.21-6.64,10.86a106.11,106.11,0,0,0-5,10.74c-4.68,11.56-7.62,24.87-6.83,37.41a106.41,106.41,0,0,0,2.91,18.35c.94,3.88,1.91,8.12,4.23,11.44,2.15,3.08,5.71,5.67,7.06,9.26,1.53,4.08-2.47,6.91-4.89,9.92a197,197,0,0,0-13,18,138.64,138.64,0,0,0-18.14,41.73c-3.91,16.39-3.53,33.46-4.17,50.2l-.6,15.76c-.14,3.69-.25,5.63,1.48,8.7.87,1.55.47,2.56.82,3.94a3,3,0,0,0,.77,1.8c1.85,1.92,5.89,1.42,8.14.67,3.56-1.18,5.94-4,8.41-6.66,3.39-3.66,6.81-7.28,10.3-10.85A297.81,297.81,0,0,1,934,663.77l-2.65-2.65-7.09,6.55a1.88,1.88,0,0,0,.83,3.13c18.4,3.52,36.87,6.64,55.27,10.17,1.28.24,2.83-.86,2.3-2.31l-3.94-10.86c-.81-2.23-4.31-1.35-3.61,1l11.26,37.77c2,6.7,6.13,16.5,15,15.2,2.34-.34,3-1.33,3.73-3.42a115.78,115.78,0,0,1,7.13-15.84c5.73-11.07,12-21.89,17-33.28a1.87,1.87,0,0,0-3.23-1.89l-7,10.21c-.87,1.26.31,2.73,1.62,2.82,11.46.82,23.43-1,33.34-7.11,10.32-6.36,16.3-16.93,18.68-28.62,2.74-13.43,3.1-27.74,4.14-41.39a146.53,146.53,0,0,0,.27-21.16c-.21-3-1.37-6.74-.49-9.7.41-1.36,1.51-2.2,1.11-3.72a1.93,1.93,0,0,0-1.81-1.38c-1.09,0-2,.94-2.6,1.28l2.76,2.11c.74-2.21,2.94-4.64,4.17-6.65,2-3.22,3.88-6.46,5.71-9.75,3.32-6,6.68-12.21,8.61-18.81,4.22-14.47.65-32.74-4.8-46.45a50,50,0,0,0-3.62-7.56c-.46-.77-1.06-1.47-1.51-2.23-1.43-2.45-.49-3.67.12-6.41a101.82,101.82,0,0,0,2.71-22c0-10.49-3.76-38.12-20.51-31.31-6.39,2.59-10.68,9.64-14.94,14.79l-15.2,18.37c-1.52,1.85,1.11,4.52,2.65,2.65Z" transform="translate(-822.23 -356.52)"/><path class="cls-1" d="M895.34,587.56a280.82,280.82,0,0,0-10.08,46.88c-9.38,3.17-24.39-.38-35-4.6-11.81-4.71-23.28-31.11-24.16-43.6-.38-5.39,14.07-35.25,31.95-37.66a35.91,35.91,0,0,1,29.54,9.61c7.65,7.5,9.8,18.85,7.76,29.37s-8.38,19.82-18.58,23.13c-6.11,2-13.24,1.75-18.5-2s-7.86-11.32-4.79-17,12.21-7.14,16.14-2" transform="translate(-822.23 -356.52)"/><path class="cls-1" d="M893.53,587.06a280.71,280.71,0,0,0-10.14,47.38l1.38-1.81c-4.75,1.56-10,1.35-14.85.66a82.69,82.69,0,0,1-16.37-4.2,21.5,21.5,0,0,1-5.19-2.41,23.58,23.58,0,0,1-4-3.56A54.28,54.28,0,0,1,837,612.4c-4.11-7.47-7.58-15.88-8.8-24.37a15.15,15.15,0,0,1-.19-1.87c0-.15,0-.3,0-.44,0-.6-.08.21,0-.26a27.38,27.38,0,0,1,.85-3.07,55.28,55.28,0,0,1,3.91-8.53c3.82-7,8.7-13.78,15-18.63a23.39,23.39,0,0,1,10-4.72,33,33,0,0,1,15.66,1.33,32.2,32.2,0,0,1,13.63,8.5,27.27,27.27,0,0,1,6.66,13.94c1.72,9.69-.85,20.91-7.62,28.22a23.59,23.59,0,0,1-12.71,7.13c-5,1-11,.36-15-3.19-3.34-3-5.27-7.89-3.88-12.29,1.21-3.84,5.3-6,9.21-5.62a6.62,6.62,0,0,1,4.59,2.51,1.88,1.88,0,0,0,2.65,0,1.91,1.91,0,0,0,0-2.65c-3.05-3.79-8.58-4.47-12.92-2.75a12.11,12.11,0,0,0-7.73,12,16.65,16.65,0,0,0,8.35,13.56c5.37,3,12,3.23,17.87,1.54,22.84-6.64,28.52-40.82,11.83-56.41a37.11,37.11,0,0,0-15.8-8.65,35,35,0,0,0-17-.5c-8.7,2.19-15.5,9.37-20.62,16.37a76.65,76.65,0,0,0-6.64,10.85,45.46,45.46,0,0,0-3.6,8.9c-.77,2.93-.18,5.86.46,8.78a78.8,78.8,0,0,0,4.45,13.56,83,83,0,0,0,7.23,13.74,39.35,39.35,0,0,0,9.08,10.12,22.6,22.6,0,0,0,5.62,2.82,91,91,0,0,0,8.67,2.77,61.73,61.73,0,0,0,17.91,2.43,28.25,28.25,0,0,0,7.7-1.26,2,2,0,0,0,1.38-1.81,276.13,276.13,0,0,1,10-46.38c.73-2.31-2.89-3.29-3.61-1Z" transform="translate(-822.23 -356.52)"/><path class="cls-2" d="M883.88,677.54s.4,11.77-.87,19.2c-.31,1.79,3.14,4.28,4.45,5.54,1.59,1.51,2.85,1.49,4.63.22,5.65-4,7.21-9.15,12.11-13.87,2.13-2.06,5.79-2.7,5.49-4.85-.17-1.26-3.82-3-6.07-3.67C898,678.47,890.45,678.6,883.88,677.54Z" transform="translate(-822.23 -356.52)"/><path class="cls-2" d="M882,677.54c.09,2.94.08,5.89,0,8.83-.11,3.59-1.74,8.76-.53,12.12.86,2.4,4.69,6,7.18,6.6,3.75.94,7.21-3.07,9.33-5.61,3.43-4.11,5.82-8.27,10.32-11.33,2-1.33,4.14-2.95,2.87-5.6s-5.85-4-8.5-4.62c-6-1.41-12.23-1.31-18.29-2.19-2.36-.35-3.38,3.26-1,3.61,3.56.52,7.14.8,10.72,1.14,2.9.27,9.7.19,11.86,2.56,1.22,1.34.92,1.11-.63,2.47-.75.66-1.7,1.11-2.46,1.78-2.41,2.13-4.17,5-6.06,7.57-2.34,3.17-5.76,8.07-10,4.34-2.52-2.23-1.55-4.92-1.32-7.89a131.92,131.92,0,0,0,.25-13.78C885.68,675.14,881.93,675.13,882,677.54Z" transform="translate(-822.23 -356.52)"/><path class="cls-2" d="M930.86,683.46a45.14,45.14,0,0,1,0,9.66c-.16.9,2,1.49,2.61,2.11a1.93,1.93,0,0,0,2.64.22,49.82,49.82,0,0,0,6.51-5.76c1.06-1,2.25-1.28,2.1-2.35-.09-.63-2.43-2.21-3.56-2.53C938.35,684,934.14,684,930.86,683.46Z" transform="translate(-822.23 -356.52)"/><path class="cls-2" d="M929,683.46c.16,1.49.25,3,.28,4.51,0,1.81-.83,4.84,0,6.47.69,1.26,3,2.54,4.3,3,2.34.92,4.36-1,6-2.39,1-.87,2-1.82,3-2.76s2.22-1.68,3.08-2.67a2.94,2.94,0,0,0,.08-4.09c-3.4-4-9.8-3.25-14.41-3.92-2.36-.34-3.38,3.27-1,3.62,3.44.5,7.71.1,10.89,1.6.19.09,1.73.94,1.72,1.18.09-1.47-1.72.36-1.67.31-1.38,1.22-2.61,2.61-4,3.81-.73.62-1.56,1.65-2.5,1.55a5.32,5.32,0,0,1-1.72-.92c-.85-.52-.31.56-.24-.35.06-.74.14-1.47.16-2.21a47.94,47.94,0,0,0-.27-6.78C932.48,681.08,928.73,681.06,929,683.46Z" transform="translate(-822.23 -356.52)"/><path class="cls-2" d="M985.36,694.64s5.65,10.91,6.25,18.43c.15,1.8,3.47,5.67,5,6.56,1.91,1.07,4.38-.66,5.79-2.34,4.48-5.31,5.22-10.6,8.8-16.38,1.56-2.52,3.73-3.59,2.92-5.6-.48-1.18-5.8-3.08-8.14-3.15C1000.15,692,992,694,985.36,694.64Z" transform="translate(-822.23 -356.52)"/><path class="cls-2" d="M983.75,695.58a75.42,75.42,0,0,1,3.87,9c1.31,3.71,1.27,8.23,3.31,11.57,1.42,2.32,3.92,5.58,6.93,5.67,4.28.14,7.37-4.72,9.17-7.94,1.33-2.38,2.27-4.94,3.41-7.4,1.31-2.82,3.15-5,4.74-7.62,1.41-2.29,1.28-4.48-1-6-8.12-5.54-20.06-1-28.8-.07-2.37.25-2.4,4,0,3.75,7-.73,15.08-3.61,22.08-2.25.88.17,4.61,1,4.83,1.8.14.54-2.15,3.15-2.64,3.9-2.3,3.51-3.52,7.6-5.46,11.3-1,2-2.56,5.46-4.76,6.27-2.38.88-4.32-1.53-5.24-3.26-1.36-2.53-1.42-6-2.29-8.73a77,77,0,0,0-4.9-11.85C985.88,691.54,982.65,693.44,983.75,695.58Z" transform="translate(-822.23 -356.52)"/><path class="cls-2" d="M1059.27,694.66A155,155,0,0,1,1074,705.72c1.35,1.21,6.14,1.37,7.9.94,2.12-.53,2.73-3.49,2.6-5.68-.41-6.94-3.5-11.29-4.89-18-.6-2.9.25-5.17-1.73-6.06-1.16-.53-6.33,1.75-8.08,3.31C1065.41,684.19,1063.67,689.67,1059.27,694.66Z" transform="translate(-822.23 -356.52)"/><path class="cls-2" d="M1058.32,696.28q4.1,2.72,8,5.66c3.17,2.37,6,5.86,10,6.56,2.82.5,6.5.69,8.49-1.74,2.42-2.94,1.5-7.72.7-11.07-1.31-5.45-3.71-10.27-4.4-15.88-.29-2.38-1.07-4.58-3.81-4.79s-6.81,2.18-8.88,3.93c-4.53,3.84-6.79,9.87-10.54,14.38-1.53,1.85,1.11,4.51,2.66,2.65,4.63-5.58,7.31-13.78,14.51-16.55,1.79-.69,1.59-1,2.35.94a21.07,21.07,0,0,1,.35,3.16c.64,3.55,2.18,6.86,3.29,10.27s3.57,9.79-1.55,11.19c-3.38.93-6.23-2.37-8.6-4.23-3.47-2.72-7.06-5.29-10.73-7.72C1058.2,691.7,1056.32,695,1058.32,696.28Z" transform="translate(-822.23 -356.52)"/><path class="cls-2" d="M826.08,580.15c1.34,15.62,7.48,32.14,19.94,39.24a41.07,41.07,0,0,0,41-.69c-.77,5.36-2.76,8.66-3.25,12.8-.36,3-5.25,3-8.26,3.42-13.6,1.79-27.63-4.63-36.43-15.16S827.25,593.82,826.08,580.15Z" transform="translate(-822.23 -356.52)"/><path class="cls-2" d="M823.58,580.15c1,11.82,4.38,23.92,11.88,33.33,7.66,9.61,20.28,14.06,32.35,13.51a43.1,43.1,0,0,0,20.48-6.13L884.62,618c-.52,3.42-1.77,6.57-2.67,9.89a21.11,21.11,0,0,0-.49,2.2c0,.27-.13.92-.14,1s-.12.4,0,.15,0-.11-.09.12l.1-.15c-.15,0-.37.27-.64.36a10.59,10.59,0,0,1-2,.48,40.43,40.43,0,0,1-18.49-1,41.22,41.22,0,0,1-17-10.44A44.55,44.55,0,0,1,833,603.34a98.87,98.87,0,0,1-4.45-23.19,2.57,2.57,0,0,0-2.5-2.5,2.52,2.52,0,0,0-2.5,2.5c1.3,15,4.42,31.18,14.89,42.7a46.6,46.6,0,0,0,18.9,12.51,42,42,0,0,0,11,2.27,51.69,51.69,0,0,0,10.17-.56,12.71,12.71,0,0,0,5.1-1.42,5.63,5.63,0,0,0,2.65-4.36c.69-4.06,2.51-7.82,3.13-11.92.3-2-1.64-4.06-3.67-2.82a38.89,38.89,0,0,1-32.94,3.24,30.07,30.07,0,0,1-12.71-8.5,42.15,42.15,0,0,1-7.56-13.12,69.12,69.12,0,0,1-4-18,2.56,2.56,0,0,0-2.5-2.5A2.52,2.52,0,0,0,823.58,580.15Z" transform="translate(-822.23 -356.52)"/><path class="cls-2" d="M995.16,506.31c-12.53-7.08-20.65,7.11-35.07,8.68a80,80,0,0,1-12.12-.2c2.84.41-6,0-14.45-4.42-.47-.24-1.28-.5-1.72-.77l-3.73-2.25c-2.24-1.33-3.69-1.7-6.67-4.23-6.24-5.3-7.49-8.66-8.65-8.52,0,0,.92,20.19-.22,25.62-.74,3.58,3.06,8.57,4.19,10.35,10.49,16.52,16.74,33.77,27.37,50.21,4.12,6.38,8.35,12.88,14.28,17.62,11.58,9.27,27.56,10.38,41,16.67a57.32,57.32,0,0,1,27.62,28c5.52,12.19,3.77,23.37,0,36.22,22.44-2.09,38.9-22.9,43.81-44.55,3.05-13.48,1.66-29.34,1.39-43.16s0-28,8.7-38.74a57.22,57.22,0,0,0,8-13.88c2.06-4.94,1.11-19.11,1.74-20.44,0,0-8,7.64-14.58,9.16-6.76,1.56-11.54,1.15-18.78-1.52-2.61-1-10.73-3.5-13.13-4.64-10.45-5-22.45-17.11-33.13-14.53C1004.27,508.63,1001,509.62,995.16,506.31Z" transform="translate(-822.23 -356.52)"/><path class="cls-2" d="M997.68,502a18.81,18.81,0,0,0-11.39-2.52,30.63,30.63,0,0,0-10.75,3.75c-3.12,1.67-6.14,3.5-9.36,5-1.13.52.85-.31-.32.14l-1.09.41a30.3,30.3,0,0,1-2.91.87c-.45.1-.9.2-1.35.28a3.54,3.54,0,0,0-.69.12c.11,0,1.2-.13.27,0s-1.84.14-2.76.16a83.51,83.51,0,0,1-9.36-.36c-2.47-.23-4.61,2.07-4.92,4.33s1.12,5.12,3.59,5.49c.61.09,1.16.39-.66-.4l-1.79-1.8h0l1.8-6.84h0l2.53-.69a2.32,2.32,0,0,1-.59,0c-.86-.06.34,0,.59.09-.32-.07-.66-.1-1-.16a46.05,46.05,0,0,1-4.91-1.16c-.92-.27-1.84-.57-2.74-.9q-.83-.3-1.65-.63c.2.08.83.37-.06,0l-.84-.39c-.51-.24-1-.51-1.53-.75s-1-.42-1.49-.63-.24.07,0,0,.35.19,0-.05c-.16-.1-.32-.2-.49-.29-1.93-1.18-3.87-2.29-5.86-3.38a21.43,21.43,0,0,1-2-1.23c-.16-.11-.3-.23-.46-.33-.58-.4.61.53,0,0s-1.08-.91-1.61-1.38a47.62,47.62,0,0,1-4-4c-1.91-2.15-3.84-5.29-7.16-5.09-2.6.17-5.13,2.16-5,5,.17,3.68.27,7.37.32,11.06,0,2.88,0,5.77,0,8.65,0,1.17-.08,2.34-.18,3.51,0,.26-.05.52-.08.79s-.13,1.09,0,0,0-.28,0,0a17.92,17.92,0,0,0-.3,2c-.33,4,1.9,7.87,4,11.05,2.37,3.56,4.53,7.26,6.58,11,4.59,8.36,8.61,17,13,25.45a173.05,173.05,0,0,0,14.77,24.05,52.75,52.75,0,0,0,9.63,10.22,49.91,49.91,0,0,0,11.14,6.51c8,3.39,16.38,5.32,24.53,8.18,1,.33,1.89.68,2.83,1l1.3.53c.69.27-.75-.34-.08,0l.92.41a53.5,53.5,0,0,1,5.16,2.66,57.26,57.26,0,0,1,5.15,3.4l.47.35c.57.42-.66-.53-.1-.07l1.05.85c.79.65,1.57,1.33,2.32,2a56.11,56.11,0,0,1,4.18,4.27c.64.73,1.25,1.48,1.86,2.22.15.18.61.72-.07-.1.17.2.32.42.47.62l.9,1.25a58.9,58.9,0,0,1,3.17,5.07c.47.84.91,1.7,1.34,2.57l.57,1.22c.06.13.43,1,.21.44s.29.73.28.71a38.75,38.75,0,0,1,1.91,6.61c.09.49.17,1,.25,1.48,0,.23.08,1,0-.06,0,.28.06.56.09.84.1,1.13.16,2.25.18,3.38a50,50,0,0,1-.37,6.36c-.11,1,0,.15,0,0,0,.28-.09.57-.13.86-.08.5-.17,1-.26,1.51-.21,1.17-.45,2.33-.72,3.49-.53,2.34-1.16,4.66-1.82,7-.83,2.88,1.55,6.65,4.82,6.33,12.79-1.25,24.23-7.63,32.73-17.19a70.23,70.23,0,0,0,16.49-34c2.65-15,1-30.18.92-45.27,0-3.44,0-6.89.28-10.32.06-.82.13-1.63.22-2.44,0-.41.09-.81.14-1.21.15-1.36-.19,1.07,0-.28.29-1.71.59-3.42,1-5.11a45.1,45.1,0,0,1,1.4-4.55,10.45,10.45,0,0,1,.43-1.1c-.57,1.1,0-.07.13-.26q.57-1.27,1.26-2.49c.39-.7.8-1.39,1.25-2.07.22-.34.45-.67.68-1,.1-.14.92-1.23.21-.31,1.35-1.74,2.71-3.46,3.92-5.31a54.88,54.88,0,0,0,5.81-11.46,31.21,31.21,0,0,0,1.27-8.27c.18-2.75.2-5.51.24-8.26,0-1,0-2.09.06-3.13,0-.35,0-.71.07-1.06s-.43,1.58,0,.64c.81-1.94-.52-4.71-2.3-5.65a5.16,5.16,0,0,0-6,.78c-.36.34-.73.67-1.11,1l-1.25,1.07-.72.58-.44.35c-.68.55.7-.51.19-.14-1.35,1-2.67,1.94-4.09,2.8-.68.42-1.38.81-2.09,1.17l-.61.3c-.24.11-.66.51-.16.09s.27-.1,0,0l-.75.27a21.68,21.68,0,0,1-2.61.66c-.48.1-1,.18-1.43.26a4.14,4.14,0,0,1-.6.09c1.15,0,.25,0,0,0a24.7,24.7,0,0,1-2.85.12c-.44,0-.88,0-1.31,0l-.76-.06-.37,0c-.38,0-.26,0,.38.06a13.83,13.83,0,0,1-2.73-.54c-1.13-.28-2.24-.61-3.34-1-1.37-.45-2.72-1-4.09-1.42-2.89-1-5.8-1.91-8.66-3l-.93-.35c-.93-.36.46.21.33.15-.63-.33-1.28-.62-1.92-1-1.66-.89-3.27-1.87-4.87-2.88-6.52-4.15-13-9.18-20.6-11.15a21,21,0,0,0-6.46-.74,46,46,0,0,0-7,1.34c-.54.12-1.07.23-1.62.33-.22.05-.45.08-.68.12-.8.14.26-.11.34,0a9.25,9.25,0,0,0-1.44.11c-.41,0-.83,0-1.24,0-.21,0-.91-.11-.12,0s-.17-.05-.27-.07c-.44-.09-.87-.21-1.29-.34l-.66-.23c-.72-.25,0,.12.17.08-.25.09-1.63-.83-1.82-.93a5,5,0,0,0-5,8.63,19.89,19.89,0,0,0,12.71,2.63,60.59,60.59,0,0,0,6.22-1.25l1.33-.32c1.19-.29-1,0,.24,0,.86,0,1.69,0,2.55,0,.67,0-1-.23-.37-.06a4.46,4.46,0,0,0,.48.09c.44.08.87.18,1.3.29a23.86,23.86,0,0,1,2.6.84,4.51,4.51,0,0,1,.66.26c-.11-.07-1.05-.47-.22-.08l1.15.53c1,.46,1.88,1,2.79,1.48,3.48,2,6.77,4.23,10.12,6.39a57.33,57.33,0,0,0,9.76,5.33c2.85,1.14,5.8,2.07,8.71,3a75.68,75.68,0,0,0,10.28,3.14,34.76,34.76,0,0,0,13.89-.33,30.62,30.62,0,0,0,11.33-5.6,63.21,63.21,0,0,0,6.1-5l-8.36-4.86c-.57,1.38-.41,3.47-.44,5,0,2.26,0,4.51-.12,6.76,0,1.22-.1,2.43-.19,3.65-.05.58-.1,1.15-.16,1.73,0,.39-.29,1.32,0-.23-.07.33-.1.68-.16,1s-.19.93-.32,1.39-.61,1.75-.06.37c-.67,1.66-1.46,3.28-2.29,4.86a52.37,52.37,0,0,1-2.7,4.64c-.49.75-1,1.49-1.52,2.21-.06.09-1,1.25-.3.41-.52.67-1.06,1.33-1.57,2a39.26,39.26,0,0,0-5.06,9.2c-2.58,6.38-3.46,13.38-3.76,20.22-.62,14.36,1.23,28.73.16,43.08-.06.89-.14,1.78-.23,2.66l-.15,1.32c0,.16-.21,1.62,0,.42-.26,1.79-.57,3.57-1,5.33a66.61,66.61,0,0,1-2.48,8.42c-.25.68-.51,1.35-.78,2-.09.24-.48,1.39,0,.13a8.7,8.7,0,0,1-.43,1q-.88,2-1.89,3.9a64,64,0,0,1-4.74,7.64l-.63.87-.43.57c.41-.54.45-.6.12-.17-.53.65-1,1.29-1.59,1.92q-1.52,1.74-3.16,3.36c-1.17,1.14-2.39,2.24-3.67,3.27-.2.16-1.09,1-.08.08a13.23,13.23,0,0,1-1.13.84c-.65.47-1.32.93-2,1.37a44.32,44.32,0,0,1-3.9,2.25c-.72.37-1.46.7-2.19,1-1.1.51,1-.4-.08,0l-1.3.49a40.49,40.49,0,0,1-4.68,1.39q-1.21.28-2.43.48c-.28,0-1.46.33-.08,0a11.22,11.22,0,0,1-1.42.16l4.82,6.33c2.7-9.35,4.51-18.89,3-28.62-1.37-9-6-17.24-11.61-24.28a60.8,60.8,0,0,0-19-15.74c-7.64-4-16-6.21-24.22-8.75-2-.61-4-1.25-5.91-2-.94-.34-1.86-.7-2.79-1.07-.21-.08-.9-.33.09.05l-.54-.24c-.54-.23-1.08-.48-1.62-.73a47.29,47.29,0,0,1-5.35-3c-.39-.25-.77-.51-1.15-.77-.19-.14-1.52-1.14-.59-.4q-1.34-1.07-2.58-2.22a49.36,49.36,0,0,1-4.49-4.88c-.19-.24-1-1.27-.41-.51l-1-1.38c-.68-.93-1.34-1.88-2-2.83-2.65-3.89-5.18-7.88-7.53-12-4.81-8.34-8.91-17.05-13.27-25.62-2.2-4.32-4.47-8.6-6.91-12.78-1.85-3.16-4.09-6.15-5.78-9.39-.09-.19-.74-1.3-.34-.64s-.14-.4-.22-.67a7.24,7.24,0,0,0-.32-1.26c.13.09,0,1.26.08.41a2,2,0,0,0,0-.59c.17.31-.16,1.13,0,.32.06-.38.11-.76.16-1.14.09-.72.19-1.44.25-2.16.21-2.57.24-5.16.25-7.74,0-4.86-.12-9.72-.31-14.57,0-.3,0-.6,0-.91l-5,5c-.81,0-2.43-.44-2.75-1.1a6.52,6.52,0,0,0,.84.91c.84,1,1.64,2,2.51,2.92a38.07,38.07,0,0,0,9.89,8.08c1.94,1,3.8,2.18,5.7,3.31a12.51,12.51,0,0,0,1.47.72l1.07.44c.66.27-1-.54-.28-.09a19.54,19.54,0,0,0,1.9.92,55,55,0,0,0,7,2.63,43.67,43.67,0,0,0,5.3,1.2c2.05.32,3.66.68,5.6-.32,2.27-1.16,3.29-4.72,1.8-6.84a5.3,5.3,0,0,0-3.54-2.42L948,519.79c6.47.59,13.24.82,19.46-1.39a65.48,65.48,0,0,0,10.2-4.9c1.42-.79,2.83-1.6,4.29-2.32l1.05-.52c.39-.17,1.55-.49.12-.07.76-.22,1.49-.57,2.25-.8q.6-.17,1.2-.3l.54-.1c.85-.19-1,.06-.39,0,.83,0,1.64-.09,2.47-.05,1.1.06-1.13-.23.23,0,.43.09.87.21,1.29.34l.59.19c1,.34-.13-.11-.16-.08a7.44,7.44,0,0,1,1.52.76,5,5,0,0,0,5-8.63Z" transform="translate(-822.23 -356.52)"/><path class="cls-3" d="M883.94,633.11a40.58,40.58,0,0,1-10.49,2.24,35,35,0,0,1-12.24-1.53,51.47,51.47,0,0,1-25-16.88A45.94,45.94,0,0,1,826,590.62a39.83,39.83,0,0,1,8-25.5,37.73,37.73,0,0,1,21.73-14.44,34.22,34.22,0,0,1,27.73,6.21,31.59,31.59,0,0,1,12.11,25.72,29.07,29.07,0,0,1-13.23,23.14c-7.45,4.79-20,6.7-25.89-1.58-2.38-3.32-3.44-8.06-1.31-11.78a8.87,8.87,0,0,1,8.89-4,6.59,6.59,0,0,1,4.23,2.47,1.9,1.9,0,0,0,2.65,0,1.93,1.93,0,0,0,0-2.66c-2.85-3.54-7.91-4.37-12.09-3.05a11.94,11.94,0,0,0-8.41,9.78,16.17,16.17,0,0,0,4.9,13.63c4.09,3.93,10.06,5.41,15.6,5,10.63-.84,20.08-7.9,24.87-17.27a33.87,33.87,0,0,0-.81-31.51,36.28,36.28,0,0,0-26.69-18.13,38.35,38.35,0,0,0-29.24,8,44.47,44.47,0,0,0-15.84,25c-2.35,10.5-.41,21.55,4.48,31a53.47,53.47,0,0,0,23,22.81c8.94,4.65,18.7,6.95,28.68,4.83a51.28,51.28,0,0,0,5.58-1.56c2.27-.76,1.3-4.39-1-3.62Z" transform="translate(-822.23 -356.52)"/><path class="cls-3" d="M1026.63,487.7c7.4-3.17,14.44-3.14,22.29-2.58,2.41.17,2.4-3.58,0-3.75-8.62-.62-16.1-.37-24.18,3.09-2.21,1-.3,4.18,1.89,3.24Z" transform="translate(-822.23 -356.52)"/><path class="cls-3" d="M960.74,476.33c8.07.34,14.73,3.29,21.22,7.94,2,1.4,3.85-1.85,1.9-3.24-7.09-5.07-14.37-8.09-23.12-8.45-2.42-.1-2.41,3.65,0,3.75Z" transform="translate(-822.23 -356.52)"/><path class="cls-3" d="M1038.64,522.55c-3,8.1-10.44,13.8-19.28,13a16.6,16.6,0,0,1-15.14-16.9c0-2.47-3.48-2.34-3.75,0-.88,7.83-9,13.33-16.4,13.23-9.63-.12-16.84-7.79-18-17.05-.3-2.37-4.06-2.4-3.75,0,1.43,11.29,9.9,20.66,21.76,20.8,9.64.12,19-7.13,20.15-17h-3.75a20.43,20.43,0,0,0,18.38,20.64c10.74,1.08,19.82-5.88,23.41-15.7.82-2.27-2.8-3.25-3.62-1Z" transform="translate(-822.23 -356.52)"/><path class="cls-2" d="M1027.33,461.73c-2.32.64-7,2.79-8.47,4.76s-2.3,4.51-1,6.51a5.34,5.34,0,0,0,4.58,2.24c1.77,0,5.95-1.9,7.55-2.65a12.23,12.23,0,0,0,4.48-2.82,5.36,5.36,0,0,0,1.43-4.89c-.63-2.28-3.15-3.6-5.51-3.62s-4.6,1-6.75,1.94" transform="translate(-822.23 -356.52)"/><path class="cls-2" d="M1026.83,459.92c-5,1.53-11.39,4.69-11.46,10.76a6.18,6.18,0,0,0,4.2,5.92c2.79,1,5.42.12,8-.94,4.54-1.85,11.84-5,10.06-11.28-2-6.92-10.31-4.89-15-2.8-2.2,1-.29,4.21,1.89,3.24,1.76-.79,3.82-1.78,5.81-1.68,2.83.13,5.1,2.37,2.75,5.31-1.58,2-5,3.05-7.36,3.94a10.69,10.69,0,0,1-3.34,1c-3.75.06-3.66-4-1.74-6.1,1.75-1.87,4.79-3,7.17-3.73s1.32-4.33-1-3.62Z" transform="translate(-822.23 -356.52)"/><path class="cls-2" d="M986.06,458.19c2.23.89,6.65,3.53,7.9,5.65s1.8,4.73.33,6.58a5.36,5.36,0,0,1-4.79,1.74c-1.77-.2-5.71-2.53-7.23-3.46a12.2,12.2,0,0,1-4.14-3.28,5.38,5.38,0,0,1-.9-5c.87-2.19,3.53-3.24,5.87-3s4.47,1.46,6.51,2.65" transform="translate(-822.23 -356.52)"/><path class="cls-2" d="M985.11,459.81c2.25,1,5.07,2.36,6.66,4.26s2.48,5.08-.57,6.05c-1.49.47-2.76-.19-4.08-.84a27.63,27.63,0,0,1-6.35-3.84c-2.46-2.25-2.22-5.92,1.44-6.2,2.29-.17,4.56,1.33,6.45,2.43a1.88,1.88,0,0,0,1.89-3.24c-4.44-2.57-12.67-5.33-15.12,1.47-2.29,6.34,5.23,10.35,9.8,12.62,4.14,2.06,10.68,2.3,11.69-3.61,1.05-6.12-5.07-10.27-9.92-12.34-2.19-.93-4.11,2.3-1.89,3.24Z" transform="translate(-822.23 -356.52)"/><path class="cls-3" d="M1002.49,517.06c-3.63.32-6.11-3-8.26-5.91-1.2-1.64-2.41-3.93-1.16-5.54.88-1.14,2.54-1.23,4-1.22,1.92,0,4.54.06,6.46.07l5.72.58c1.44.14,3.09.41,3.85,1.64,1.06,1.73-.39,3.88-1.75,5.38C1008.88,514.76,1006.07,517.77,1002.49,517.06Z" transform="translate(-822.23 -356.52)"/><path class="cls-3" d="M1002.49,515.18c-2.71,0-5.48-2.59-6.64-5-1-2.09-1.47-3.85,1.21-3.94,1.52-.05,3.05,0,4.57.06,1.36,0,2.68.1,4,.23l2.15.22c1.51-.31,2.11.37,1.82,2.06.47,2.34-.1,2.61-1.76,4.14s-3.14,2.41-5.38,2.21c-2.4-.21-2.39,3.54,0,3.75,5.09.46,11.62-4.78,12.68-9.79,1.42-6.78-8.77-6.45-12.88-6.57s-12.71-1-11.51,5.71c.91,5,6.58,10.62,11.71,10.65C1004.91,519,1004.91,515.2,1002.49,515.18Z" transform="translate(-822.23 -356.52)"/><path class="cls-4" d="M1019.15,537.7c-4.59-.7-6.48-2.14-9.47-4.24a28,28,0,0,1-7.75-8.62,27,27,0,0,1-8.7,7c-2.76,1.42-4.17,1.24-7.18,2.07-.11-.72,1.72,11.06,4.41,15.79,2.52,4.43,5.51,7.83,10.6,7.52,4.12-.25,9.62-2.92,12-6.27s5.83-9.13,6-13.3" transform="translate(-822.23 -356.52)"/><path class="cls-3" d="M1019.65,535.89c-6.85-1.09-12.66-6.12-16.1-12a1.88,1.88,0,0,0-2.94-.38,26.78,26.78,0,0,1-6.39,5.67,16,16,0,0,1-4.34,2c-1.43.37-2.9.58-4.33,1l2.31,1.31v0a1.88,1.88,0,1,0-3.62,1c1,6.27,2.32,13.12,5.94,18.43,2.69,3.94,6.54,6.77,11.52,6.23a19.24,19.24,0,0,0,12.53-6.51,39,39,0,0,0,4.25-6.81,21.35,21.35,0,0,0,2.55-8.07c.17-2.41-3.58-2.4-3.75,0-.29,4.09-2.9,8.15-5.16,11.44a15.47,15.47,0,0,1-10.09,6.14c-8,1.36-11.16-8.34-12.64-14.37-.61-2.47-1.14-5-1.53-7.48l-3.62,1v0a1.9,1.9,0,0,0,2.31,1.31c1.54-.41,3.12-.62,4.65-1.06a19.44,19.44,0,0,0,4.91-2.29,29.68,29.68,0,0,0,7.15-6.26l-3-.38c3.88,6.63,10.59,12.49,18.35,13.73a1.93,1.93,0,0,0,2.3-1.31,1.89,1.89,0,0,0-1.31-2.31Z" transform="translate(-822.23 -356.52)"/><path class="cls-3" d="M999.79,526.59l-.44,12.33c-.08,2.41,3.67,2.41,3.75,0l.44-12.33c.09-2.41-3.66-2.41-3.75,0Z" transform="translate(-822.23 -356.52)"/><path class="cls-3" d="M923.08,553.38a149.79,149.79,0,0,0-24.75,32.82,128.77,128.77,0,0,0-13.69,37.85,133.08,133.08,0,0,0-2.21,20.78c-.24,8.6-.65,17.19-1,25.79l-.5,12.94c-.15,4-.64,8.15-.2,12.13.37,3.47,1.69,6.78,4.64,8.82s6.58,1.55,9.45-.28c3.22-2.06,5.68-5.23,8.24-8l8.8-9.57,17.41-19,4.4-4.78L931,660.26l-7.95,8.85c-.87,1-.64,2.85.83,3.13l44.22,8.51,12.09,2.32a1.9,1.9,0,0,0,2.31-2.3l-4.13-13.83c-.69-2.31-4.31-1.33-3.62,1l7.62,25.54,3.77,12.65c1.16,3.87,2,8.1,4,11.64,1.74,3.09,4.84,5.66,8.52,5.72,3.44.06,6.1-2.27,7.88-5,2-3.16,3.34-6.87,4.85-10.31L1016.8,696,1029,668.37l-3.24-1.89-6.67,15.14a1.9,1.9,0,0,0,1.62,2.82c17.38,1.35,34.64-8.85,44.45-22.78,11.38-16.16,14.81-36.65,15.69-56a186.15,186.15,0,0,0-2.08-37.14,1.89,1.89,0,0,0-2.31-1.31,1.94,1.94,0,0,0-1.31,2.31,182.16,182.16,0,0,1,2.1,31.73,154.15,154.15,0,0,1-3.16,29.13,83.31,83.31,0,0,1-9.62,25.48,52.94,52.94,0,0,1-17.52,17.85c-7.84,4.85-17,7.7-26.24,7l1.62,2.83,6.67-15.15a1.94,1.94,0,0,0-.67-2.57,1.9,1.9,0,0,0-2.57.68q-10.07,22.86-20.15,45.73c-1.08,2.45-2.29,5.52-4.71,6.94-2.79,1.64-5.78-.51-7.23-2.91-1.92-3.17-2.67-7.12-3.72-10.64l-3.56-11.93-8-26.73-3.62,1,4.13,13.84,2.31-2.31L937,671l-12.09-2.32.82,3.13,8-8.85c1.6-1.79-1-4.44-2.65-2.65l-33.48,36.43c-2,2.16-4.52,5.34-7.72,5.42s-4.8-3.18-5.26-5.81c-.63-3.64-.07-7.58.07-11.25l.47-12.44,1-24.89a156.84,156.84,0,0,1,1.7-20,124.48,124.48,0,0,1,12.05-36.41A144.76,144.76,0,0,1,925.73,556c1.69-1.72-1-4.37-2.65-2.65Z" transform="translate(-822.23 -356.52)"/><path class="cls-3" d="M927.34,672.9l27.71,5.31-1.12-2.75c-1.1,2.26-3,4.14-4.59,6.09-2,2.48-4.07,4.94-6.18,7.34a34.28,34.28,0,0,1-2.5,2.47c-1.56,1.43-3.59,3.39-5.89,3.23s-3.77-2.15-4.42-4.08c-.8-2.4-.51-5-.58-7.5-.11-4-.11-7.94-.07-11.92,0-2.41-3.72-2.41-3.75,0,0,3.94-.05,7.87.07,11.81.08,2.74-.17,5.56.6,8.24a10.37,10.37,0,0,0,4.69,6.22c5.22,2.88,10.14-1.35,13.67-4.91,2.08-2.09,3.91-4.49,5.79-6.76,1.33-1.61,2.65-3.23,3.93-4.88a21,21,0,0,0,2.47-3.46,1.91,1.91,0,0,0-1.12-2.76l-27.71-5.31c-2.36-.45-3.37,3.17-1,3.62Z" transform="translate(-822.23 -356.52)"/><path class="cls-3" d="M1070.09,644.77c-3.44,7.82-7.9,15.42-13.85,21.61a42.07,42.07,0,0,1-9.33,7.2c-3.3,1.93-6.37,3.94-10.05,5.14a1.89,1.89,0,0,0-.44,3.42L1055,695.57l9.26,6.68c3.17,2.29,6.28,4.93,9.94,6.39,3.24,1.29,7.19,1.27,10-1s3.35-5.88,2.94-9.23a93.64,93.64,0,0,0-2.72-11.79q-1.63-6.28-3.34-12.56c-2.59-9.61-5.23-19.22-7.61-28.89-.58-2.34-4.19-1.35-3.61,1,3.92,15.93,8.54,31.67,12.5,47.59.71,2.83,1.87,6.3.78,9.18s-4.73,3.2-7.36,2.27c-3.4-1.2-6.37-3.88-9.26-6l-8.66-6.25-19.6-14.13-.45,3.42a38.64,38.64,0,0,0,8.49-4,83.38,83.38,0,0,0,8.13-5.24,59.25,59.25,0,0,0,13.32-15.78,88.4,88.4,0,0,0,5.53-10.62,1.94,1.94,0,0,0-.67-2.57A1.9,1.9,0,0,0,1070.09,644.77Z" transform="translate(-822.23 -356.52)"/><path class="cls-5" d="M1089.15,444.89c-.23-25.16-14.32-49.62-36.86-60.81-19-9.46-20.87-9.83-20.87-9.83l-42.73-5-23.27,6c-24.36,6.3-42.66,31.46-47.93,56.07Z" transform="translate(-822.23 -356.52)"/><path class="cls-6" d="M1091,444.89c-.28-23.15-11.9-45.94-31.38-58.75-5.13-3.37-10.8-5.87-16.31-8.53-2.91-1.41-5.83-2.81-8.79-4.11a17.56,17.56,0,0,0-2.59-1.05,23.68,23.68,0,0,0-2.9-.36l-38.24-4.44a9,9,0,0,0-2.63-.18c-.48.09-.94.24-1.41.36-7.85,2-15.81,3.82-23.58,6.13-22.29,6.64-38.33,27.46-45.34,48.86a79.45,79.45,0,0,0-2.17,8,1.9,1.9,0,0,0,1.8,2.37l4.6.36,12.5,1L953.08,436l22.43,1.77,24.7,1.94,24.94,2,23.25,1.83,19.65,1.55,14.13,1.12c2.22.17,4.46.45,6.69.53l.28,0c2.41.19,2.4-3.56,0-3.75l-4.59-.36-12.5-1-18.49-1.46-22.44-1.77-24.69-1.95-24.94-2-23.25-1.84-19.65-1.55L924.47,430c-2.21-.17-4.48-.52-6.69-.53l-.29,0,1.81,2.37c4.63-21.34,18.38-42.61,38.67-51.94,5.35-2.46,11.17-3.64,16.84-5.11L985.57,372c1.12-.29,2.27-.52,3.37-.87.68-.21-.7-.1.11,0,1.79.33,3.65.43,5.46.64l9.68,1.12,21.06,2.45,5.65.66c.9.1.06.05,0,0s.45.15.48.17l.57.22c.47.19-.26-.11,0,0l.63.27c1.08.47,2.14.95,3.2,1.45,4.36,2,8.67,4.13,13,6.26a70.51,70.51,0,0,1,14.76,9.28,64.28,64.28,0,0,1,11,12,68.59,68.59,0,0,1,12.71,39.15C1087.31,447.3,1091.06,447.31,1091,444.89Z" transform="translate(-822.23 -356.52)"/><path class="cls-7" d="M923.88,459.38l3.91-8c.32-.64,3.34-.5,2.63-.41-4.2.51-12,1.73-16.9,2.51a18.84,18.84,0,0,0,7.65,5.43C924.38,460.12,921.08,459,923.88,459.38Z" transform="translate(-822.23 -356.52)"/><path class="cls-6" d="M925.5,460.33l.93-1.9,2.16-4.39a15.86,15.86,0,0,0,.82-1.68,1.16,1.16,0,0,1-.73.59l.12,0c.14,0,.28-.07.42-.09-.46.09.09,0,.2,0h.79c.37,0-.51-.12-.63-.21l-.38-2.95h0l.83-.48c.39-.11,0,0-.25,0l-.9.11-2.27.31c-1.54.22-3.08.44-4.62.68-3,.44-6,.91-9,1.39-1.45.23-1.73,2.22-.83,3.13A27.46,27.46,0,0,0,917,459a21.79,21.79,0,0,0,4,1.87c1,.37,2.17.92,3.08-.05a1.84,1.84,0,0,0,.48-1.82c-.27-.72-.14-.21-.35-.66-.32-.72.28.52.29.55v1l-.48.83a1.66,1.66,0,0,1-1.11.49H923l.35,0a2,2,0,0,0,2.31-1.31,1.9,1.9,0,0,0-1.31-2.31,3.59,3.59,0,0,0-2.86.28,1.92,1.92,0,0,0-.69,2,2.1,2.1,0,0,0,.2.49c.86,1.47-.33-.88-.13-.37l.48-1.83h0l1.33-.55c.79,0,.27,0-.11-.14s-1-.35-1.49-.56a14.9,14.9,0,0,1-2.84-1.58,25.74,25.74,0,0,1-3.42-3.15l-.82,3.14q4.66-.75,9.35-1.46l4.57-.66,1.73-.23a3.61,3.61,0,0,0,2.18-.67,1.9,1.9,0,0,0-.38-2.95,3.43,3.43,0,0,0-2.13-.28,4.28,4.28,0,0,0-2.77.89,11.25,11.25,0,0,0-1.7,3.17l-1.29,2.62-1.32,2.68a1.92,1.92,0,0,0,.67,2.57A1.9,1.9,0,0,0,925.5,460.33Z" transform="translate(-822.23 -356.52)"/><path class="cls-7" d="M1074.2,462.85a9,9,0,0,1,4.08,4.31,21.65,21.65,0,0,0,5.33,6.27c.21.17,1.34.06,0,0,1.36-.95,14.13-7.63,8-6.51-1.38.25-7.46-1.51-9.5-2.09C1079.84,464.2,1074.2,462.85,1074.2,462.85Z" transform="translate(-822.23 -356.52)"/><path class="cls-6" d="M1073.25,464.47a4.63,4.63,0,0,1,.54.29c.2.12.39.25.58.39.43.31-.28-.25.16.14l.3.25c1.21,1.12,1.7,2.56,2.59,3.9a24.74,24.74,0,0,0,3.77,4.34,5.49,5.49,0,0,0,2.14,1.53,2.29,2.29,0,0,0,2.54-.87,1.9,1.9,0,0,0-1.12-2.76,4.8,4.8,0,0,0-1.14-.13l1,3.5c1.51-1,3.18-1.85,4.75-2.78s3.8-2,5.11-3.58a2.18,2.18,0,0,0-.81-3.64,3.35,3.35,0,0,0-1.18-.12,9.94,9.94,0,0,0-1.08.13c-.24,0-.51-.05.05,0H1091l-.32,0c-.49,0,.41.09-.12,0l-1.07-.2c-.83-.17-1.66-.37-2.48-.58-1.41-.36-2.82-.75-4.23-1.15-2.68-.76-5.39-1.4-8.1-2-2.35-.56-3.35,3.06-1,3.62s4.47,1.07,6.69,1.66c2.65.69,5.25,1.51,7.93,2.08a10.35,10.35,0,0,0,3.75.32l.41-.06c-.52.08-.22,0-.1,0s.45-.05.47,0-.55-.09-.32,0a2.06,2.06,0,0,1-.93-.74,1.76,1.76,0,0,1-.18-1.27c0,.12.27-.55.09-.26.35-.55.18-.21,0-.07l-.33.29c-.35.31.3-.2-.18.14l-.61.43c-.89.6-1.8,1.16-2.72,1.71-1.66,1-3.43,1.85-5,2.94a1.89,1.89,0,0,0,.94,3.49c.78,0,0-.05.14,0l-1.12-2.76v0l1.12-.86c.06,0,.54,0,.26-.06a.79.79,0,0,1,.51.17c.26.16.3.18.13,0a6.93,6.93,0,0,0-.9-.81c-.59-.56-1.15-1.13-1.69-1.73a19.12,19.12,0,0,1-2.46-3.71,10.4,10.4,0,0,0-4.44-4.37,1.94,1.94,0,0,0-2.57.67A1.9,1.9,0,0,0,1073.25,464.47Z" transform="translate(-822.23 -356.52)"/><path class="cls-5" d="M1031.32,434.27c-18.24-3-36.39-4.56-52.19-4h0c1.17-10.41,2.69-28.44,3.86-38.85.73-6.48,1.2-17.38,5.7-22.1,6.14-6.44,4.07-11.52,12.94-10.84,3.35.25,19.24.43,22.75,2.35s7.43,11.28,9.3,14.07,1,11.7.79,17.4c-.49,16.14-2.1,25.92-3.15,42" transform="translate(-822.23 -356.52)"/><path class="cls-6" d="M1031.82,432.46c-17.38-2.85-35.06-4.66-52.69-4.1l1.87,1.87c1.42-12.64,2.38-25.33,3.77-38,.63-5.77.86-11.74,2.79-17.26a14,14,0,0,1,1.78-3.57c.86-1.22,2-2.26,2.88-3.48,1.4-1.92,2.28-4.2,3.72-6.08a4.12,4.12,0,0,1,1.5-1.2,8.55,8.55,0,0,1,3.79-.38c1.75.09,3.51.17,5.26.24a99.19,99.19,0,0,1,14.61,1.22c.44.09.88.19,1.31.3l.52.16c.12,0,.68.28.27.08a5.93,5.93,0,0,1,2,1.72,41,41,0,0,1,4.27,7c.6,1.13,1.18,2.27,1.8,3.39a16.88,16.88,0,0,1,1.17,2.09c.89,2.52.62,5.56.53,8.18-.24,7.2-.54,14.41-1.1,21.59s-1.36,14.6-1.94,21.9c-.16,2-.31,4.07-.44,6.1-.16,2.41,3.59,2.4,3.75,0,.52-7.87,1.32-15.71,2-23.57.67-7.62,1-15.25,1.34-22.89a57.11,57.11,0,0,0,0-9.61,11.22,11.22,0,0,0-1-3.86c-.46-.88-1-1.72-1.51-2.61-1.36-2.54-2.64-5.13-4.19-7.56-1.29-2-2.83-4.3-5.11-5.27a23.44,23.44,0,0,0-6.38-1.31c-2.69-.32-5.4-.49-8.11-.63-2.34-.12-4.67-.21-7-.31s-4.61-.39-6.79.4a9.19,9.19,0,0,0-4.77,4.58c-.64,1.12-1.25,2.27-2,3.35a45.64,45.64,0,0,1-2.9,3.6c-4,4.91-4.59,12-5.22,18-1.36,13.08-2.53,26.18-3.88,39.27-.15,1.45-.31,2.9-.47,4.35a1.89,1.89,0,0,0,1.88,1.88c17.29-.55,34.64,1.17,51.7,4,2.36.39,3.37-3.23,1-3.62Z" transform="translate(-822.23 -356.52)"/><path class="cls-3" d="M922,463.53a1.25,1.25,0,0,0,0-2.5,1.25,1.25,0,0,0,0,2.5Z" transform="translate(-822.23 -356.52)"/><path class="cls-3" d="M1072.88,464.18c13.89,14,21.71,35.65,21.46,55.32a72.48,72.48,0,0,1-7.47,30.8c-2.79,5.42-6.89,10.2-10.78,14.87-4.31,5.18-9,10-14.86,13.36-2.09,1.21-.21,4.45,1.89,3.24A56.83,56.83,0,0,0,1077.73,569c4.1-4.8,8.48-9.88,11.6-15.39,5.48-9.69,8.4-22.14,8.74-33.25.65-20.87-7.83-44-22.54-58.87a1.88,1.88,0,0,0-2.65,2.66Z" transform="translate(-822.23 -356.52)"/><path class="cls-3" d="M982.47,585.56a45.33,45.33,0,0,0,36.6,1.7c2.22-.86,1.26-4.48-1-3.61a41.7,41.7,0,0,1-33.7-1.33c-2.16-1.06-4.07,2.18-1.9,3.24Z" transform="translate(-822.23 -356.52)"/><path class="cls-3" d="M928.12,450.05a117.53,117.53,0,0,0-18,34.08c-2.9,8.73-5.32,18.52-4.49,27.8,1,10.86,3.66,22.64,9.42,32,6.2,10.07,15.06,20.76,25.37,26.71,2.09,1.21,4-2,1.89-3.24-9.83-5.67-18.71-16.35-24.44-26.07-5.26-8.93-8.18-20.79-8.6-31.14-.81-20.56,10-42.34,22.07-58.24,1.46-1.93-1.79-3.8-3.23-1.9Z" transform="translate(-822.23 -356.52)"/><path class="cls-3" d="M932.47,452.62a413.53,413.53,0,0,1,54.86-1.93,381.13,381.13,0,0,1,54.34,5.67q15.3,2.73,30.35,6.71c2.34.61,3.33-3,1-3.62a386.61,386.61,0,0,0-54.41-10.21,392.18,392.18,0,0,0-55-2.36q-15.59.4-31.1,2a1.93,1.93,0,0,0-1.88,1.88,1.89,1.89,0,0,0,1.88,1.87Z" transform="translate(-822.23 -356.52)"/><path class="cls-5" d="M1092.46,467.11c-57.81-16.39-128.17-22.37-178.89-13.7h0c-3.43-3.08-3.82-18.71.08-21.16s72.31-2,93.15-2h.14c2,.32,49,7.8,67.76,11.78,3.42.72,19.06,2.93,20.93,5.88C1098.24,452.06,1096.24,468.18,1092.46,467.11Z" transform="translate(-822.23 -356.52)"/><path class="cls-6" d="M1093,465.3a475.75,475.75,0,0,0-71.84-14.23,441.3,441.3,0,0,0-71.76-3.17,290.69,290.69,0,0,0-36.29,3.7l1.83,3.13h0a1.9,1.9,0,0,0,0-2.65c-.41-.38-.16-.08-.41-.47-.09-.16-.18-.31-.26-.47,0,0-.27-.55-.15-.27a14.39,14.39,0,0,1-.78-2.65,28.67,28.67,0,0,1-.57-6.34,22.12,22.12,0,0,1,.72-5.73,5.74,5.74,0,0,1,.84-1.95c.16-.24.14-.23.48-.42-.65.38-.1.06.19,0a9.35,9.35,0,0,1,1-.2l.49-.08h-.07l.34,0,1.53-.16c2.78-.25,5.58-.39,8.38-.51,17.48-.73,35-.68,52.51-.68q11.57,0,23.13,0c1.38,0,2.81.12,4.19,0,.64-.05-.38-.11.27,0l.82.13,7.13,1.15c17.77,2.88,35.55,5.77,53.23,9.19,3.18.61,6.34,1.29,9.53,1.86a107.93,107.93,0,0,1,12.67,2.75,25.31,25.31,0,0,1,2.4.84c.29.13.57.27.85.43l.42.26c.3.19-.24-.12.19.15.13.09.26.42,0,0a3.23,3.23,0,0,1,.22.41s.13.32,0,0a5.25,5.25,0,0,1,.17.52,10.8,10.8,0,0,1,.45,2.51,26.38,26.38,0,0,1-1.44,11.59,5.37,5.37,0,0,1-.33.69c-.06.11-.52.86-.29.49,0,.06-.28.22-.29.29,0-.33.31,0,0,0,.74,0-.39,0,.42-.1-.38.05.44.11,0,0-2.34-.56-3.34,3.05-1,3.62,4,.95,5.45-4.55,6-7.4.8-4,1.25-8.72,0-12.7a5.73,5.73,0,0,0-2.91-3.66,26.37,26.37,0,0,0-5.8-2.07c-4.18-1.09-8.44-1.8-12.68-2.56-8.34-1.51-16.63-3.23-25-4.69-9.75-1.71-19.51-3.34-29.28-4.95l-10.33-1.68c-1.69-.27-3.42-.67-5.12-.81-3-.24-6.17,0-9.21,0l-12.16,0c-18.57,0-37.16-.07-55.72.56-3.26.11-6.53.25-9.79.49a35.86,35.86,0,0,0-6,.73c-2.8.68-3.94,3.59-4.48,6.16a30.93,30.93,0,0,0,.36,13.87,9.61,9.61,0,0,0,2.33,4.56v-2.65h0c-1.55,1.35.17,3.42,1.83,3.14,21.81-3.71,44.13-4.41,66.21-3.63a481.7,481.7,0,0,1,72.25,8.11q19.9,3.74,39.44,9.22C1094.29,469.58,1095.29,466,1093,465.3Z" transform="translate(-822.23 -356.52)"/></svg>